<?xml version="1.0" encoding="UTF-8"?>
<svg id="Layer_2" data-name="Layer 2" xmlns="http://www.w3.org/2000/svg" viewBox="0 0 98.02 98.02">
  <defs>
    <style>
      .cls-1 {
        fill: #e3e3e3;
        stroke-width: 0px;
      }
    </style>
  </defs>
  <g id="Layer_1-2" data-name="Layer 1">
    <path class="cls-1" d="m47.81,65.94l-26.38,26.38H5.71v-15.65l26.45-26.45L0,17.98,18.12,0l32.31,32.24L78.74,3.85c.33-.33.7-.58,1.09-.75.39-.16.81-.25,1.27-.25.4,0,.8.08,1.19.24.4.17.8.43,1.19.78l10.68,11.06c.31.35.54.73.66,1.11.13.41.19.83.19,1.25,0,.47-.06.9-.19,1.28-.11.34-.34.68-.66,1l-28.08,28.16,31.94,32.16-17.98,18.12-32.23-32.08Zm1.64-1.78l30.45,30.45,14.78-14.78-14.41-14.41-7.2,7.2-1.78-1.78,7.2-7.2-14.26-14.26-14.78,14.78Zm-41.31,13.58v12.16h12.23l58.5-58.57-.49-.49-5.54-5.69-5.63-5.48-.49-.49L8.13,77.73ZM3.27,17.98l30.6,30.68,14.86-14.78-14.49-14.41-7.2,7.2-1.71-1.71,7.2-7.2L18.05,3.19,3.27,17.98ZM80.37,6.48l11.17,11.17.99-.99-11.17-11.17-.99.99Z"/>
  </g>
</svg>