<?xml version="1.0" encoding="UTF-8"?>
<svg id="Layer_2" data-name="Layer 2" xmlns="http://www.w3.org/2000/svg" viewBox="0 0 99.55 99.55">
  <defs>
    <style>
      .cls-1 {
        fill: #e3e3e3;
      }
    </style>
  </defs>
  <g id="Layer_1-2" data-name="Layer 1">
    <path class="cls-1" d="M49.76,15.53c9.56,0,17.66,3.32,24.3,9.95,6.64,6.63,9.96,14.73,9.96,24.28s-3.32,17.66-9.95,24.3c-6.63,6.64-14.73,9.96-24.28,9.96s-17.66-3.32-24.3-9.95c-6.64-6.63-9.96-14.73-9.96-24.28s3.32-17.66,9.95-24.3c6.63-6.64,14.73-9.96,24.28-9.96ZM49.79,80.7c8.57,0,15.86-3.02,21.88-9.05,6.02-6.03,9.03-13.33,9.03-21.9s-3.02-15.86-9.05-21.88c-6.03-6.02-13.33-9.03-21.9-9.03s-15.86,3.02-21.88,9.05c-6.02,6.03-9.03,13.33-9.03,21.9s3.02,15.86,9.05,21.88,13.33,9.03,21.9,9.03ZM49.77,65.11c3.51,0,6.71-.92,9.61-2.75,2.9-1.83,5.09-4.32,6.57-7.45h-32.36c1.47,3.12,3.66,5.6,6.56,7.44s6.11,2.76,9.62,2.76ZM33.59,39.5c0,1.09.37,1.99,1.1,2.71.73.71,1.64,1.07,2.73,1.07s1.99-.37,2.71-1.1c.71-.73,1.07-1.64,1.07-2.73s-.37-1.99-1.1-2.71c-.73-.71-1.64-1.07-2.73-1.07s-1.99.37-2.71,1.1c-.71.73-1.07,1.64-1.07,2.73ZM58.35,39.5c0,1.09.37,1.99,1.1,2.71.73.71,1.64,1.07,2.73,1.07s1.99-.37,2.71-1.1c.71-.73,1.07-1.64,1.07-2.73s-.37-1.99-1.1-2.71c-.73-.71-1.64-1.07-2.73-1.07s-1.99.37-2.71,1.1c-.71.73-1.07,1.64-1.07,2.73ZM0,18.84V7.47c0-2.06.73-3.81,2.19-5.28C3.66.73,5.42,0,7.47,0h11.37v3.31H7.47c-1.21,0-2.21.39-2.99,1.17s-1.17,1.78-1.17,2.99v11.37H0ZM18.84,99.55H7.47c-2.06,0-3.81-.73-5.28-2.19-1.46-1.46-2.19-3.22-2.19-5.28v-11.37h3.31v11.37c0,1.21.39,2.21,1.17,2.99s1.78,1.17,2.99,1.17h11.37v3.31ZM80.7,98.18v-3.31h11.37c1.21,0,2.21-.39,2.99-1.17s1.17-1.78,1.17-2.99v-11.31h3.31v11.31c0,2.06-.73,3.81-2.19,5.28-1.46,1.46-3.22,2.19-5.28,2.19h-11.37ZM96.23,18.84V7.47c0-1.21-.39-2.21-1.17-2.99s-1.78-1.17-2.99-1.17h-11.37V0h11.37c2.06,0,3.81.73,5.28,2.19,1.46,1.46,2.19,3.22,2.19,5.28v11.37h-3.31Z"/>
  </g>
</svg>