<?xml version="1.0" encoding="UTF-8"?>
<svg id="Layer_2" data-name="Layer 2" xmlns="http://www.w3.org/2000/svg" viewBox="0 0 74.42 99.55">
  <defs>
    <style>
      .cls-1 {
        fill: #d9d9d9;
      }
    </style>
  </defs>
  <g id="Layer_1-2" data-name="Layer 1">
    <path class="cls-1" d="M37.22,99.55c-2.18,0-4.03-.68-5.54-2.03s-2.24-3.09-2.19-5.21h-4.93c-1,0-1.93-.43-2.78-1.28-.85-.85-1.28-1.78-1.28-2.77v-17.81c-6.68-3.45-11.77-8.18-15.27-14.21C1.75,50.2,0,43.88,0,37.27c0-10.48,3.58-19.32,10.75-26.5C17.92,3.59,26.74,0,37.19,0s19.27,3.59,26.46,10.77c7.18,7.18,10.77,16,10.77,26.47,0,6.53-1.75,12.83-5.25,18.91-3.5,6.08-8.59,10.85-15.27,14.29v17.81c0,1-.43,1.92-1.28,2.77-.85.85-1.78,1.28-2.78,1.28h-4.93c.05,2.12-.67,3.86-2.17,5.21-1.5,1.35-3.34,2.03-5.53,2.03ZM24.57,88.25h25.28v-6.36h-25.28v6.36ZM24.57,77.52h25.28v-6.28h-25.28v6.28ZM23.3,67.19h11.85v-20.59l-12.96-12.96,3.02-3.02,12.01,12.01,12.01-12.01,3.02,3.02-12.96,12.97v20.58h11.85c5.72-2.78,10.35-6.79,13.91-12.05,3.55-5.26,5.33-11.23,5.33-17.9,0-9.26-3.21-17.11-9.63-23.53-6.42-6.43-14.26-9.64-23.51-9.64s-17.1,3.21-23.53,9.63c-6.43,6.42-9.64,14.26-9.64,23.53,0,6.67,1.78,12.64,5.33,17.91,3.55,5.26,8.19,9.28,13.91,12.06Z"/>
  </g>
</svg>