<?xml version="1.0" encoding="UTF-8"?>
<svg id="Layer_2" data-name="Layer 2" xmlns="http://www.w3.org/2000/svg" viewBox="0 0 105.67 99.55">
  <defs>
    <style>
      .cls-1 {
        fill: #e3e3e3;
      }
    </style>
  </defs>
  <g id="Layer_1-2" data-name="Layer 1">
    <path class="cls-1" d="M38.65,99.41c-4.07,0-7.61-1.3-10.62-3.89-3.01-2.59-4.95-5.82-5.83-9.68-.97,1.8-2.36,3.17-4.19,4.12-1.83.94-3.75,1.42-5.75,1.42-3.38,0-6.27-1.18-8.66-3.55-2.39-2.37-3.59-5.25-3.59-8.63,0-3.14,1.12-5.96,3.36-8.48,2.24-2.52,5.05-3.69,8.43-3.51-1.98-1.58-3.55-3.58-4.71-6-1.16-2.42-1.75-4.91-1.75-7.5,0-2.8.68-5.42,2.04-7.84,1.36-2.42,3.29-4.41,5.8-5.94.18.49.41,1.01.69,1.55.28.54.54,1.06.75,1.54-1.93,1.36-3.38,2.98-4.35,4.86-.97,1.88-1.45,3.86-1.45,5.94,0,5.71,2.03,9.43,6.09,11.17s8.36,3.04,12.88,3.92l.66,1.25c-1.01,2.87-1.79,5.27-2.34,7.2-.55,1.93-.82,3.7-.82,5.33,0,3.53,1.27,6.61,3.82,9.26,2.55,2.65,5.66,3.97,9.34,3.97,3.91,0,7.1-1.38,9.59-4.13,2.49-2.75,4.52-6.05,6.1-9.88,1.58-3.83,2.82-7.8,3.72-11.91.9-4.11,1.66-7.54,2.27-10.31l3.36.99c-.7,3.34-1.54,7.23-2.51,11.66-.97,4.44-2.34,8.66-4.12,12.68-1.77,4.02-4.12,7.42-7.03,10.21-2.92,2.79-6.65,4.18-11.19,4.18ZM12.26,88.02c2.41,0,4.5-.87,6.25-2.61,1.76-1.74,2.64-3.82,2.64-6.23s-.87-4.5-2.62-6.25c-1.75-1.76-3.84-2.64-6.26-2.64s-4.5.87-6.24,2.62c-1.73,1.75-2.6,3.84-2.6,6.26s.87,4.5,2.61,6.24c1.74,1.73,3.82,2.6,6.23,2.6ZM42.82,65.75c-3.43-3.07-6.57-5.95-9.42-8.63-2.85-2.68-5.31-5.3-7.38-7.87-2.06-2.57-3.66-5.14-4.78-7.71-1.12-2.57-1.68-5.26-1.68-8.05,0-4.71,1.61-8.68,4.84-11.91,3.23-3.23,7.17-4.84,11.82-4.84,1.19,0,2.26.07,3.23.2s1.87.33,2.7.59c-.46-.8-.83-1.63-1.1-2.5-.27-.86-.41-1.79-.41-2.77,0-3.4,1.18-6.3,3.55-8.68,2.37-2.38,5.25-3.57,8.63-3.57s6.27,1.19,8.67,3.57c2.39,2.38,3.59,5.28,3.59,8.68,0,1-.14,1.94-.43,2.8-.29.87-.67,1.71-1.15,2.53.79-.26,1.68-.47,2.67-.63s2.08-.23,3.26-.23c3.63,0,6.82,1,9.57,3,2.75,2,4.7,4.58,5.84,7.74-.56-.04-1.18-.07-1.87-.07s-1.29.02-1.82.07c-1.01-2.2-2.55-3.97-4.61-5.34s-4.42-2.04-7.06-2.04c-3.38,0-6.09.85-8.13,2.54s-4.67,4.38-7.87,8.07h-1.45c-3.31-3.78-5.97-6.49-7.97-8.14-2.01-1.65-4.62-2.47-7.84-2.47-3.84,0-7.01,1.26-9.53,3.78-2.52,2.52-3.78,5.7-3.78,9.54,0,2.08.51,4.21,1.52,6.39s2.46,4.49,4.36,6.93c1.9,2.44,4.23,5.03,6.98,7.77,2.76,2.75,5.92,5.7,9.47,8.86l-2.44,2.37ZM52.84,21.08c2.41,0,4.5-.87,6.25-2.61,1.76-1.74,2.64-3.82,2.64-6.23s-.87-4.5-2.62-6.25c-1.75-1.76-3.84-2.64-6.26-2.64s-4.5.87-6.24,2.62c-1.73,1.75-2.6,3.84-2.6,6.26s.87,4.5,2.61,6.24c1.74,1.73,3.82,2.6,6.23,2.6ZM66.69,99.55c-1.13,0-2.23-.11-3.3-.34-1.07-.23-2.11-.62-3.12-1.17.26-.41.55-.9.87-1.47.32-.57.6-1.11.84-1.63.81.41,1.63.7,2.46.87.83.17,1.65.25,2.48.25,3.59,0,6.72-1.31,9.38-3.93,2.66-2.62,3.99-5.74,3.99-9.35,0-1.66-.3-3.44-.89-5.34-.59-1.9-1.35-4.28-2.27-7.13l.72-1.25c4.66-.88,8.99-2.21,13.01-3.99s6.03-5.52,6.03-11.23c0-4.49-1.57-7.85-4.7-10.08-3.13-2.24-6.71-3.36-10.71-3.36-3.49,0-7.59.58-12.3,1.75-4.71,1.16-10.1,2.73-16.16,4.71l-.92-3.36c5.78-1.84,11.01-3.43,15.68-4.74,4.67-1.32,8.95-1.98,12.85-1.98,5.05,0,9.59,1.48,13.6,4.45,4.02,2.96,6.03,7.19,6.03,12.68,0,2.57-.56,4.99-1.68,7.27-1.12,2.27-2.67,4.29-4.64,6.04,3.38-.09,6.18,1.09,8.4,3.52,2.22,2.43,3.33,5.27,3.33,8.5s-1.2,6.12-3.59,8.54c-2.39,2.42-5.28,3.63-8.66,3.63-2.01,0-3.93-.48-5.75-1.43-1.83-.95-3.21-2.32-4.13-4.1-.97,3.91-2.99,7.17-6.06,9.78-3.07,2.61-6.67,3.92-10.78,3.92ZM93.56,88.02c2.41,0,4.47-.87,6.18-2.61,1.71-1.74,2.57-3.82,2.57-6.23s-.87-4.52-2.62-6.32c-1.75-1.8-3.84-2.7-6.26-2.7s-4.5.87-6.24,2.62c-1.73,1.75-2.6,3.84-2.6,6.26s.89,4.53,2.68,6.3c1.78,1.78,3.88,2.67,6.29,2.67Z"/>
  </g>
</svg>