<?xml version="1.0" encoding="UTF-8"?>
<svg id="Layer_2" data-name="Layer 2" xmlns="http://www.w3.org/2000/svg" viewBox="0 0 73.02 98.14">
  <defs>
    <style>
      .cls-1 {
        fill: #e3e3e3;
      }
    </style>
  </defs>
  <g id="Layer_1-2" data-name="Layer 1">
    <path class="cls-1" d="M36.52,98.14c-2.02,0-3.68-.6-5.07-1.85-1.36-1.22-2-2.75-1.95-4.67l.02-.72h-5.65c-.81,0-1.56-.35-2.28-1.07-.72-.72-1.07-1.47-1.07-2.28v-18.24l-.38-.2c-6.53-3.37-11.57-8.06-14.98-13.94C1.73,49.28,0,43.02,0,36.57c0-10.24,3.55-18.99,10.55-26.01C17.55,3.56,26.28,0,36.49,0s18.95,3.56,25.96,10.57c7.01,7.01,10.57,15.75,10.57,25.97,0,6.37-1.73,12.62-5.15,18.57-3.41,5.93-8.45,10.65-14.98,14.02l-.38.2v18.24c0,.81-.35,1.56-1.07,2.28-.72.72-1.47,1.07-2.28,1.07h-5.65l.02.72c.05,1.92-.59,3.45-1.94,4.67-1.38,1.24-3.04,1.85-5.06,1.85ZM23.17,88.25h26.68v-7.76h-26.68v7.76ZM23.17,77.52h26.68v-7.68h-26.68v7.68ZM37.88,45.61v21.57h12.71l.14-.07c5.8-2.82,10.58-6.95,14.18-12.29,3.62-5.35,5.45-11.51,5.45-18.29,0-9.41-3.31-17.5-9.83-24.03-6.52-6.53-14.6-9.85-24.01-9.85s-17.49,3.31-24.02,9.84c-6.53,6.53-9.85,14.61-9.85,24.02,0,6.79,1.83,12.94,5.45,18.3,3.61,5.34,8.38,9.48,14.18,12.3l.14.07h12.71v-21.58l-12.67-12.67,2.03-2.03,12.01,12.01,12.01-12.01,2.03,2.03-12.67,12.68Z"/>
  </g>
</svg>