<?xml version="1.0" encoding="UTF-8"?>
<svg id="Layer_2" data-name="Layer 2" xmlns="http://www.w3.org/2000/svg" viewBox="0 0 92.38 99.87">
  <defs>
    <style>
      .cls-1 {
        fill: #e3e3e3;
      }
    </style>
  </defs>
  <g id="Layer_1-2" data-name="Layer 1">
    <path class="cls-1" d="M45.08,63.94c4.85,0,9.06-1.55,12.63-4.65,3.58-3.1,5.36-6.95,5.36-11.55,0-3.79-1.19-7.04-3.56-9.76s-5.36-4.07-8.96-4.07c-2.92,0-5.46.97-7.62,2.91-2.17,1.94-3.25,4.28-3.25,7.02,0,1.22.26,2.4.79,3.55.53,1.14,1.25,2.22,2.16,3.23l3.1-2.45c-.77-.56-1.36-1.2-1.76-1.92s-.61-1.47-.61-2.26c0-1.49.6-2.9,1.81-4.25,1.21-1.34,3-2.02,5.39-2.02s4.42.91,6.19,2.74c1.78,1.82,2.66,4.3,2.66,7.42,0,3.3-1.31,6.19-3.94,8.67-2.63,2.48-6.03,3.71-10.21,3.71-4.68,0-8.71-1.84-12.09-5.51-3.38-3.67-5.08-8.31-5.08-13.91,0-2.8.55-5.52,1.66-8.16s2.71-5.02,4.82-7.13l-2.74-2.59c-2.4,2.41-4.26,5.13-5.58,8.15-1.32,3.02-1.98,6.2-1.98,9.54,0,6.38,2,11.85,5.99,16.42,3.99,4.57,8.93,6.86,14.83,6.86ZM17.28,99.87v-20.58c-5.52-4.99-9.78-10.52-12.78-16.61C1.5,56.59,0,50.38,0,44.05c0-12.23,4.3-22.63,12.89-31.2C21.49,4.29,31.9,0,44.12,0c9.9,0,18.88,3.05,26.96,9.14,8.07,6.09,13.3,13.89,15.68,23.41l5.47,21.89c.34,1.33.1,2.52-.7,3.55-.81,1.04-1.91,1.56-3.33,1.56h-11.38v20.52c0,2.35-.8,4.31-2.41,5.9-1.61,1.59-3.56,2.38-5.87,2.38h-14.76v11.52h-3.67v-15.19h18.43c1.3,0,2.39-.43,3.28-1.3s1.33-1.97,1.33-3.31v-24.19h15.55l-5.47-22.54c-2.26-8.83-7.04-15.98-14.36-21.46-7.32-5.47-15.56-8.21-24.73-8.21-11.19,0-20.73,3.93-28.63,11.8-7.9,7.87-11.84,17.4-11.84,28.59,0,5.81,1.18,11.29,3.53,16.45,2.35,5.16,5.71,9.76,10.08,13.79l3.67,3.38v22.18h-3.67Z"/>
  </g>
</svg>