<?xml version="1.0" encoding="UTF-8"?>
<svg id="Layer_2" data-name="Layer 2" xmlns="http://www.w3.org/2000/svg" viewBox="0 0 88.02 99.55">
  <defs>
    <style>
      .cls-1 {
        fill: #d9d9d9;
      }
    </style>
  </defs>
  <g id="Layer_1-2" data-name="Layer 1">
    <path class="cls-1" d="M8.34,99.55c-2.32,0-4.29-.81-5.91-2.43-1.62-1.62-2.43-3.59-2.43-5.91V19.87c0-2.32.81-4.29,2.43-5.91,1.62-1.62,3.59-2.43,5.91-2.43h28.28c-1.21-2.76-1.02-5.37.58-7.83s3.87-3.7,6.82-3.7,5.37,1.23,6.96,3.7,1.74,5.08.44,7.83h28.28c2.32,0,4.29.81,5.91,2.43,1.62,1.62,2.43,3.59,2.43,5.91v71.34c0,2.32-.81,4.29-2.43,5.91-1.62,1.62-3.59,2.43-5.91,2.43H8.34ZM8.34,95.85h71.34c1.16,0,2.22-.48,3.19-1.45s1.45-2.03,1.45-3.19V19.87c0-1.16-.48-2.22-1.45-3.19s-2.03-1.45-3.19-1.45H8.34c-1.16,0-2.22.48-3.19,1.45s-1.45,2.03-1.45,3.19v71.34c0,1.16.48,2.22,1.45,3.19s2.03,1.45,3.19,1.45ZM19.14,78.59h32.48v-3.7H19.14v3.7ZM19.14,57.35h49.74v-3.7H19.14v3.7ZM19.14,36.11h49.74v-3.7H19.14v3.7ZM44.01,12.47c1.26,0,2.3-.41,3.12-1.23s1.23-1.86,1.23-3.12-.41-2.3-1.23-3.12-1.86-1.23-3.12-1.23-2.3.41-3.12,1.23-1.23,1.86-1.23,3.12.41,2.3,1.23,3.12,1.86,1.23,3.12,1.23ZM3.7,95.85V15.23v80.62Z"/>
  </g>
</svg>