<?xml version="1.0" encoding="UTF-8"?>
<svg id="Layer_2" data-name="Layer 2" xmlns="http://www.w3.org/2000/svg" viewBox="0 0 113.8 99.55">
  <defs>
    <style>
      .cls-1 {
        fill: #d9d9d9;
      }
    </style>
  </defs>
  <g id="Layer_1-2" data-name="Layer 1">
    <path class="cls-1" d="M110.95,88.3l-12.48-12.64,2.62-2.7,12.71,12.56-2.85,2.77ZM91.99,17.26l-2.62-2.62,12.48-12.56,2.85,2.7-12.71,12.48ZM21.73,17.41L9.25,4.78l2.62-2.7,12.71,12.56-2.85,2.77ZM2.62,88.3l-2.62-2.77,12.48-12.56,2.85,2.7-12.71,12.64ZM30.28,91.07l26.66-15.95,26.74,16.26-7.01-30.13,23.42-20.11-30.82-2.77-12.33-28.43-12.25,28.28-30.82,2.62,23.42,20.42-7.01,29.82ZM24.27,99.55l8.63-36.75L4.08,37.91l37.91-3.16L56.94,0l15.02,34.75,37.91,3.16-28.82,24.89,8.63,36.75-32.75-19.65-32.67,19.65Z"/>
  </g>
</svg>