<?xml version="1.0" encoding="UTF-8"?>
<svg id="Layer_2" data-name="Layer 2" xmlns="http://www.w3.org/2000/svg" viewBox="0 0 140.59 99.55">
  <defs>
    <style>
      .cls-1 {
        fill: #e3e3e3;
      }
    </style>
  </defs>
  <g id="Layer_1-2" data-name="Layer 1">
    <path class="cls-1" d="M90.85,99.55c-13.98,0-25.77-4.81-35.38-14.42-9.61-9.62-14.42-21.4-14.42-35.34s4.81-25.6,14.42-35.27C65.09,4.84,76.87,0,90.81,0s25.6,4.83,35.27,14.5c9.67,9.67,14.51,21.41,14.51,35.24s-4.83,25.77-14.5,35.38c-9.67,9.61-21.41,14.42-35.24,14.42ZM90.82,94.79c12.41,0,23.01-4.37,31.81-13.11,8.8-8.74,13.2-19.37,13.2-31.91s-4.4-23.01-13.19-31.81-19.42-13.2-31.87-13.2-23.12,4.4-31.86,13.19c-8.74,8.8-13.11,19.42-13.11,31.87s4.37,23.12,13.11,31.86c8.74,8.74,19.37,13.11,31.91,13.11ZM109.62,72.21l3.36-3.36-19.78-19.87v-25.84h-4.76v27.72l21.18,21.35ZM7.46,22.3v-4.76h25.66v4.76H7.46ZM0,52.15v-4.76h33.12v4.76H0ZM7.46,82.01v-4.76h25.66v4.76H7.46Z"/>
  </g>
</svg>