<?xml version="1.0" encoding="UTF-8"?>
<svg id="Layer_2" data-name="Layer 2" xmlns="http://www.w3.org/2000/svg" xmlns:xlink="http://www.w3.org/1999/xlink" viewBox="0 0 67.16 18.94">
  <defs>
    <style>
      .cls-1 {
        fill: url(#linear-gradient-15);
      }

      .cls-2 {
        fill: url(#linear-gradient-13);
      }

      .cls-3 {
        fill: url(#linear-gradient-28);
      }

      .cls-4 {
        fill: url(#linear-gradient-2);
      }

      .cls-5 {
        fill: url(#linear-gradient-25);
      }

      .cls-6 {
        fill: url(#linear-gradient-10);
      }

      .cls-7 {
        fill: url(#linear-gradient-12);
      }

      .cls-8 {
        fill: url(#linear-gradient-27);
      }

      .cls-9 {
        fill: url(#linear-gradient-37);
      }

      .cls-10 {
        fill: url(#linear-gradient-26);
      }

      .cls-11 {
        fill: url(#linear-gradient-4);
      }

      .cls-12 {
        fill: url(#linear-gradient-35);
      }

      .cls-13 {
        fill: url(#linear-gradient-30);
      }

      .cls-14 {
        fill: url(#linear-gradient-3);
      }

      .cls-15 {
        fill: url(#linear-gradient-34);
      }

      .cls-16 {
        fill: url(#linear-gradient-5);
      }

      .cls-17 {
        fill: url(#linear-gradient-22);
      }

      .cls-18 {
        fill: url(#linear-gradient-24);
      }

      .cls-19 {
        fill: url(#linear-gradient-33);
      }

      .cls-20 {
        fill: url(#linear-gradient-8);
      }

      .cls-21 {
        fill: url(#linear-gradient-14);
      }

      .cls-22 {
        fill: url(#linear-gradient-29);
      }

      .cls-23 {
        fill: url(#linear-gradient-20);
      }

      .cls-24 {
        fill: url(#linear-gradient-17);
      }

      .cls-25 {
        fill: url(#linear-gradient-7);
      }

      .cls-26 {
        fill: url(#linear-gradient-9);
      }

      .cls-27 {
        fill: url(#linear-gradient-11);
      }

      .cls-28 {
        fill: url(#linear-gradient-19);
      }

      .cls-29 {
        fill: url(#linear-gradient-6);
      }

      .cls-30 {
        fill: url(#linear-gradient-36);
      }

      .cls-31 {
        fill: url(#linear-gradient-21);
      }

      .cls-32 {
        fill: url(#linear-gradient-32);
      }

      .cls-33 {
        fill: url(#linear-gradient-16);
      }

      .cls-34 {
        fill: url(#linear-gradient);
      }

      .cls-35 {
        fill: url(#linear-gradient-23);
      }

      .cls-36 {
        fill: url(#linear-gradient-31);
      }

      .cls-37 {
        fill: url(#linear-gradient-18);
      }
    </style>
    <linearGradient id="linear-gradient" x1="-2.79" y1="16.2" x2="65.66" y2="31.09" gradientUnits="userSpaceOnUse">
      <stop offset="0" stop-color="white"/>
      <stop offset="1" stop-color="white"/>
    </linearGradient>
    <linearGradient id="linear-gradient-2" x1="-2.72" y1="15.86" x2="65.74" y2="30.75" xlink:href="#linear-gradient"/>
    <linearGradient id="linear-gradient-3" x1="-2.56" y1="15.17" x2="65.89" y2="30.06" xlink:href="#linear-gradient"/>
    <linearGradient id="linear-gradient-4" x1="-2.43" y1="14.52" x2="66.03" y2="29.42" xlink:href="#linear-gradient"/>
    <linearGradient id="linear-gradient-5" x1="-2.31" y1="13.97" x2="66.15" y2="28.87" xlink:href="#linear-gradient"/>
    <linearGradient id="linear-gradient-6" x1="-2.24" y1="13.66" x2="66.22" y2="28.55" xlink:href="#linear-gradient"/>
    <linearGradient id="linear-gradient-7" x1="-1.95" y1="12.35" x2="66.5" y2="27.25" xlink:href="#linear-gradient"/>
    <linearGradient id="linear-gradient-8" x1="-1.89" y1="12.08" x2="66.56" y2="26.98" xlink:href="#linear-gradient"/>
    <linearGradient id="linear-gradient-9" x1="-1.88" y1="12.04" x2="66.57" y2="26.94" xlink:href="#linear-gradient"/>
    <linearGradient id="linear-gradient-10" x1="-1.73" y1="11.35" x2="66.72" y2="26.24" xlink:href="#linear-gradient"/>
    <linearGradient id="linear-gradient-11" x1="-1.55" y1="10.52" x2="66.9" y2="25.41" xlink:href="#linear-gradient"/>
    <linearGradient id="linear-gradient-12" x1="-1.37" y1="9.69" x2="67.08" y2="24.59" xlink:href="#linear-gradient"/>
    <linearGradient id="linear-gradient-13" x1="-1.29" y1="9.29" x2="67.17" y2="24.19" xlink:href="#linear-gradient"/>
    <linearGradient id="linear-gradient-14" x1="-1.25" y1="9.13" x2="67.2" y2="24.03" xlink:href="#linear-gradient"/>
    <linearGradient id="linear-gradient-15" x1="-1.02" y1="8.07" x2="67.43" y2="22.97" xlink:href="#linear-gradient"/>
    <linearGradient id="linear-gradient-16" x1="-.81" y1="7.08" x2="67.65" y2="21.98" xlink:href="#linear-gradient"/>
    <linearGradient id="linear-gradient-17" x1="-.69" y1="6.53" x2="67.77" y2="21.43" xlink:href="#linear-gradient"/>
    <linearGradient id="linear-gradient-18" x1="-.62" y1="6.22" x2="67.84" y2="21.11" xlink:href="#linear-gradient"/>
    <linearGradient id="linear-gradient-19" x1="-.43" y1="5.34" x2="68.03" y2="20.24" xlink:href="#linear-gradient"/>
    <linearGradient id="linear-gradient-20" x1="-.29" y1="4.72" x2="68.16" y2="19.62" xlink:href="#linear-gradient"/>
    <linearGradient id="linear-gradient-21" x1="-.21" y1="4.36" x2="68.24" y2="19.26" xlink:href="#linear-gradient"/>
    <linearGradient id="linear-gradient-22" x1="-.08" y1="3.73" x2="68.38" y2="18.62" xlink:href="#linear-gradient"/>
    <linearGradient id="linear-gradient-23" x1="0" y1="3.4" x2="68.45" y2="18.3" xlink:href="#linear-gradient"/>
    <linearGradient id="linear-gradient-24" x1=".11" y1="2.86" x2="68.57" y2="17.76" xlink:href="#linear-gradient"/>
    <linearGradient id="linear-gradient-25" x1=".79" y1="-.26" x2="69.25" y2="14.63" xlink:href="#linear-gradient"/>
    <linearGradient id="linear-gradient-26" x1="1.82" y1="-4.98" x2="70.27" y2="9.92" xlink:href="#linear-gradient"/>
    <linearGradient id="linear-gradient-27" x1="-.26" y1="4.56" x2="68.2" y2="19.45" xlink:href="#linear-gradient"/>
    <linearGradient id="linear-gradient-28" x1="-1.39" y1="9.78" x2="67.06" y2="24.68" xlink:href="#linear-gradient"/>
    <linearGradient id="linear-gradient-29" x1=".97" y1="-1.07" x2="69.42" y2="13.82" xlink:href="#linear-gradient"/>
    <linearGradient id="linear-gradient-30" x1="2.11" y1="-6.32" x2="70.56" y2="8.58" xlink:href="#linear-gradient"/>
    <linearGradient id="linear-gradient-31" x1="-.35" y1="4.97" x2="68.11" y2="19.86" xlink:href="#linear-gradient"/>
    <linearGradient id="linear-gradient-32" x1="-1.32" y1="9.44" x2="67.13" y2="24.34" xlink:href="#linear-gradient"/>
    <linearGradient id="linear-gradient-33" x1=".75" y1="-.09" x2="69.21" y2="14.81" xlink:href="#linear-gradient"/>
    <linearGradient id="linear-gradient-34" x1=".56" y1=".82" x2="69.01" y2="15.72" xlink:href="#linear-gradient"/>
    <linearGradient id="linear-gradient-35" x1="1.22" y1="-2.25" x2="69.68" y2="12.65" xlink:href="#linear-gradient"/>
    <linearGradient id="linear-gradient-36" x1="1.54" y1="-3.69" x2="69.99" y2="11.21" xlink:href="#linear-gradient"/>
    <linearGradient id="linear-gradient-37" x1="-.82" y1="7.15" x2="67.63" y2="22.04" xlink:href="#linear-gradient"/>
  </defs>
  <g id="Layer_1-2" data-name="Layer 1">
    <g>
      <g>
        <path class="cls-34" d="M.3,17.9h1.4v.3H0v-2.72h.3v2.42Z"/>
        <path class="cls-4" d="M3.58,16.23c.27,0,.51.1.7.29.19.2.29.43.29.7v.06h-1.7c.02.18.09.33.23.46.13.13.29.19.48.19.13,0,.26-.04.37-.11.11-.07.19-.16.25-.27l.27.12c-.08.17-.2.3-.36.4-.16.1-.34.15-.53.15-.27,0-.51-.1-.7-.29-.2-.19-.29-.43-.29-.71s.1-.51.29-.7c.19-.19.43-.29.7-.29ZM4.24,17c-.05-.14-.13-.25-.25-.34-.12-.09-.26-.13-.41-.13s-.29.05-.41.13c-.12.09-.2.2-.25.34h1.33Z"/>
        <path class="cls-14" d="M5.68,15.91h.29v.35h.34v.29h-.34v1.02c0,.09.03.18.1.24.07.07.15.1.24.1v.29c-.17,0-.32-.06-.45-.19-.12-.12-.18-.27-.18-.45v-1.66Z"/>
        <path class="cls-11" d="M8.77,15.91h.29v.35h.34v.29h-.34v1.02c0,.09.03.18.1.24.07.07.15.1.24.1v.29c-.17,0-.32-.06-.45-.19-.12-.12-.18-.27-.18-.45v-1.66Z"/>
        <path class="cls-16" d="M12.07,18.2h-.29v-1.17c0-.14-.05-.26-.15-.36-.1-.1-.22-.15-.36-.15s-.26.05-.36.15c-.1.1-.15.22-.15.36v1.17h-.29v-2.82h.29v1.04c.15-.12.32-.18.51-.18.22,0,.41.08.57.23.16.16.23.35.23.57v1.17Z"/>
        <path class="cls-29" d="M14.17,16.23c.27,0,.51.1.7.29.19.2.29.43.29.7v.06h-1.7c.02.18.09.33.23.46.13.13.29.19.48.19.13,0,.26-.04.37-.11.11-.07.19-.16.25-.27l.27.12c-.08.17-.2.3-.36.4-.16.1-.34.15-.53.15-.27,0-.51-.1-.7-.29-.2-.19-.29-.43-.29-.71s.1-.51.29-.7c.19-.19.43-.29.7-.29ZM14.84,17c-.05-.14-.13-.25-.25-.34-.12-.09-.26-.13-.41-.13s-.29.05-.41.13c-.12.09-.2.2-.25.34h1.33Z"/>
        <path class="cls-25" d="M17.85,16.25v-.33c0-.18.07-.33.2-.46.13-.13.29-.19.47-.19v.29c-.1,0-.19.04-.26.11-.07.07-.11.15-.12.25v.33h.38v.29h-.38v1.66h-.29v-1.66h-.24v-.29h.24Z"/>
        <path class="cls-20" d="M19.58,15.37h.29v2.82h-.29v-2.82Z"/>
        <path class="cls-26" d="M21.25,17.93c-.19-.19-.29-.43-.29-.71s.1-.51.29-.7c.19-.19.43-.29.71-.29s.51.1.7.29c.19.2.29.43.29.7s-.1.51-.29.71c-.19.2-.43.29-.7.29s-.51-.1-.71-.29ZM21.45,16.73c-.14.14-.21.3-.21.5s.07.36.21.5c.14.14.3.21.5.21s.36-.07.5-.21.21-.31.21-.5-.07-.36-.21-.5c-.14-.14-.3-.21-.5-.21s-.36.07-.5.21Z"/>
        <path class="cls-6" d="M25.36,17.53l.52-1.28h.28l-.8,1.98-.41-1.03-.42,1.03-.8-1.98h.28l.52,1.28.27-.68-.24-.6h.28l.1.25.1-.25h.28l-.24.6.27.68Z"/>
        <path class="cls-27" d="M29.31,18.22c-.16,0-.31-.04-.44-.12-.16-.09-.26-.22-.31-.4l.28-.08c.03.1.09.18.19.24.08.04.17.07.28.07.01,0,.03,0,.04,0,.02,0,.03,0,.05,0,.04,0,.08-.02.12-.04.1-.05.16-.13.17-.24,0-.06-.01-.11-.05-.15-.06-.07-.17-.12-.31-.13-.29-.02-.5-.09-.62-.22-.05-.05-.08-.11-.11-.17-.02-.05-.02-.1-.02-.16,0-.18.07-.33.22-.45.13-.1.29-.15.47-.15.22,0,.4.08.55.23.05.05.09.1.12.17l.04.08-.27.1-.03-.05s-.05-.07-.07-.1c-.09-.09-.21-.14-.34-.14-.03,0-.05,0-.06,0-.05,0-.09.02-.13.03-.13.05-.2.14-.2.27,0,.08.05.15.16.19.08.03.19.05.32.06.13,0,.24.04.33.09.07.04.13.08.18.14.09.11.13.23.12.36-.01.18-.09.32-.23.42-.12.09-.27.13-.44.13h0Z"/>
        <path class="cls-7" d="M32.68,18.2h-.29v-1.17c0-.14-.05-.26-.15-.36-.1-.1-.22-.15-.36-.15s-.26.05-.36.15c-.1.1-.15.22-.15.36v1.17h-.29v-2.82h.29v1.04c.15-.12.32-.18.51-.18.22,0,.41.08.57.23.16.16.23.35.23.57v1.17Z"/>
        <path class="cls-2" d="M34.79,18.22c-.27,0-.51-.1-.7-.29-.19-.19-.29-.43-.29-.7s.1-.51.29-.71c.19-.19.43-.29.7-.29s.51.1.71.29v-.27h.29v1.94h-.29v-.27c-.19.2-.43.29-.71.29ZM34.79,16.52c-.19,0-.36.07-.5.21s-.21.3-.21.5.07.36.21.5c.14.14.3.21.5.21s.36-.07.5-.21c.14-.14.21-.3.21-.5s-.07-.36-.21-.5c-.14-.14-.31-.21-.5-.21Z"/>
        <path class="cls-21" d="M38.03,16.23c.28,0,.51.1.71.29.19.2.29.43.29.71s-.1.51-.29.7c-.19.2-.43.29-.71.29s-.51-.1-.71-.29v1.01h-.29v-2.69h.29v.27c.19-.2.43-.29.71-.29ZM38.03,17.93c.19,0,.36-.07.5-.21.14-.14.21-.3.21-.5s-.07-.36-.21-.5c-.14-.14-.31-.21-.5-.21s-.36.07-.5.21c-.14.14-.21.31-.21.5s.07.36.21.5c.14.14.3.21.5.21Z"/>
        <path class="cls-1" d="M41.04,16.23c.27,0,.51.1.7.29.19.2.29.43.29.7v.06h-1.7c.02.18.09.33.23.46.13.13.29.19.48.19.13,0,.26-.04.37-.11.11-.07.19-.16.25-.27l.27.12c-.08.17-.2.3-.36.4-.16.1-.34.15-.53.15-.27,0-.51-.1-.7-.29-.2-.19-.29-.43-.29-.71s.1-.51.29-.7c.19-.19.43-.29.7-.29ZM41.7,17c-.05-.14-.13-.25-.25-.34-.12-.09-.26-.13-.41-.13s-.29.05-.41.13c-.12.09-.2.2-.25.34h1.33Z"/>
        <path class="cls-33" d="M44.59,15.91h.29v.35h.34v.29h-.34v1.02c0,.09.03.18.1.24.07.07.15.1.24.1v.29c-.17,0-.32-.06-.45-.19-.12-.12-.18-.27-.18-.45v-1.66Z"/>
        <path class="cls-24" d="M47.88,18.2h-.29v-1.17c0-.14-.05-.26-.15-.36-.1-.1-.22-.15-.36-.15s-.26.05-.36.15c-.1.1-.15.22-.15.36v1.17h-.29v-2.82h.29v1.04c.15-.12.32-.18.51-.18.22,0,.41.08.57.23.16.16.23.35.23.57v1.17Z"/>
        <path class="cls-37" d="M49.99,16.23c.27,0,.51.1.7.29.19.2.29.43.29.7v.06h-1.7c.02.18.09.33.23.46.13.13.29.19.48.19.13,0,.26-.04.37-.11.11-.07.19-.16.25-.27l.27.12c-.08.17-.2.3-.36.4-.16.1-.34.15-.53.15-.27,0-.51-.1-.7-.29-.2-.19-.29-.43-.29-.71s.1-.51.29-.7c.19-.19.43-.29.7-.29ZM50.65,17c-.05-.14-.13-.25-.25-.34-.12-.09-.26-.13-.41-.13s-.29.05-.41.13c-.12.09-.2.2-.25.34h1.33Z"/>
        <path class="cls-28" d="M54.22,18.22c-.16,0-.31-.04-.44-.12-.16-.09-.26-.22-.31-.4l.28-.08c.03.1.09.18.19.24.08.04.17.07.28.07.01,0,.03,0,.04,0,.02,0,.03,0,.05,0,.04,0,.08-.02.12-.04.1-.05.16-.13.17-.24,0-.06-.01-.11-.05-.15-.06-.07-.17-.12-.31-.13-.29-.02-.5-.09-.62-.22-.05-.05-.08-.11-.11-.17-.02-.05-.02-.1-.02-.16,0-.18.07-.33.22-.45.13-.1.29-.15.47-.15.22,0,.4.08.55.23.05.05.09.1.12.17l.04.08-.27.1-.03-.05s-.05-.07-.07-.1c-.09-.09-.21-.14-.34-.14-.03,0-.05,0-.06,0-.05,0-.09.02-.13.03-.13.05-.2.14-.2.27,0,.08.05.15.16.19.08.03.19.05.32.06.13,0,.24.04.33.09.07.04.13.08.18.14.09.11.13.23.12.36-.01.18-.09.32-.23.42-.12.09-.27.13-.44.13h0Z"/>
        <path class="cls-23" d="M55.95,15.91h.29v.35h.34v.29h-.34v1.02c0,.09.03.18.1.24.07.07.15.1.24.1v.29c-.17,0-.32-.06-.45-.19-.12-.12-.18-.27-.18-.45v-1.66Z"/>
        <path class="cls-31" d="M58.52,18.22c-.27,0-.51-.1-.7-.29-.19-.19-.29-.43-.29-.7s.1-.51.29-.71c.19-.19.43-.29.7-.29s.51.1.71.29v-.27h.29v1.94h-.29v-.27c-.19.2-.43.29-.71.29ZM58.52,16.52c-.19,0-.36.07-.5.21s-.21.3-.21.5.07.36.21.5c.14.14.3.21.5.21s.36-.07.5-.21c.14-.14.21-.3.21-.5s-.07-.36-.21-.5c-.14-.14-.31-.21-.5-.21Z"/>
        <path class="cls-17" d="M60.73,15.91h.29v.35h.34v.29h-.34v1.02c0,.09.03.18.1.24.07.07.15.1.24.1v.29c-.17,0-.32-.06-.45-.19-.12-.12-.18-.27-.18-.45v-1.66Z"/>
        <path class="cls-35" d="M62.43,16.25h.29v1.17c0,.14.05.26.15.36.1.1.22.15.36.15s.26-.05.36-.15c.1-.1.15-.22.15-.36v-1.17h.29v1.94h-.29v-.16c-.15.12-.32.18-.51.18-.22,0-.41-.08-.57-.24-.16-.16-.24-.35-.24-.57v-1.17Z"/>
        <path class="cls-18" d="M66.14,16.23c.27,0,.51.1.7.29.19.2.29.43.29.7v.06h-1.7c.02.18.09.33.23.46.13.13.29.19.48.19.13,0,.26-.04.37-.11.11-.07.19-.16.25-.27l.27.12c-.08.17-.2.3-.36.4-.16.1-.34.15-.53.15-.27,0-.51-.1-.7-.29-.2-.19-.29-.43-.29-.71s.1-.51.29-.7c.19-.19.43-.29.7-.29ZM66.8,17c-.05-.14-.13-.25-.25-.34-.12-.09-.26-.13-.41-.13s-.29.05-.41.13c-.12.09-.2.2-.25.34h1.33Z"/>
      </g>
      <g>
        <g>
          <path class="cls-5" d="M26,.19c1.05,1.88,2.51,3.13,4.66,3.09,2.14-.04,3.59-1.29,4.58-3.23-.32,1.75-1.03,3.15-2.54,4.06-1.25.75-1.52,1.49-1.16,2.92.53,2.14.26,4.18-.79,6.12-.04.07-.1.14-.17.24-.58-.86-.94-1.77-1.14-2.75-.25-1.23-.17-2.44.2-3.64.41-1.33.15-2.1-1.04-2.81-1.45-.86-2.23-2.14-2.59-3.73-.02-.07-.01-.14-.02-.28"/>
          <path class="cls-10" d="M29.5,1.21c0-.06.01-.2.05-.33.14-.51.56-.86,1.04-.88.44-.02.85.29,1.03.77.35.9-.25,1.86-1.13,1.79-.57-.05-1-.59-.99-1.36"/>
        </g>
        <g>
          <path class="cls-8" d="M15.22,6.39h-6.28c-.43,0-.78.35-.78.78v.75h6.28c.43,0,.78-.35.78-.78v-.75Z"/>
          <path class="cls-3" d="M8.15,12.66v.74h6.36c.43,0,.78-.35.78-.78v-.74h-6.36c-.43,0-.78.35-.78.78"/>
          <path class="cls-22" d="M60.05,12.57v.75h6.32c.43,0,.78-.35.78-.78v-.75h-6.32c-.43,0-.78.35-.78.78"/>
          <path class="cls-13" d="M67.12,6.3h-6.28c-.43,0-.78.35-.78.78v.74h6.28c.43,0,.78-.35.78-.78v-.74Z"/>
          <path class="cls-36" d="M23.7,6.31c-.83,0-1.19.64-1.41,1.2-.41,1.02-.88,2.02-1.38,3.09-.18.38-.36.76-.54,1.16-.19-.4-.37-.79-.55-1.18-.52-1.1-1.01-2.15-1.44-3.21-.28-.7-.67-1.02-1.23-1.02-.24,0-.52.06-.85.19l-.16.06.07.15c.24.52.48,1.05.71,1.57.7,1.56,1.42,3.17,2.27,4.68.16.29.89.33,1.2.33.36,0,.98-.04,1.13-.31.87-1.54,1.61-3.18,2.34-4.76.24-.52.48-1.05.72-1.57l.07-.16-.16-.06c-.3-.1-.56-.15-.79-.15"/>
          <path class="cls-32" d="M1.65,11.78v-4.7c0-.43-.35-.78-.78-.78H.07v7.09h6.7v-.82c0-.43-.35-.78-.78-.78H1.65Z"/>
          <path class="cls-19" d="M51.19,11.26c-.68-1.48-1.39-3-2.11-4.49-.21-.43-.77-.58-1.23-.58-.62,0-1.14.25-1.32.63-.71,1.46-1.37,2.9-2.08,4.43-.28.6-.55,1.2-.84,1.8l-.08.17.17.05c.3.09.56.13.79.13.67,0,1.11-.37,1.43-1.2.39-1.03.87-2.03,1.38-3.08.17-.37.35-.74.54-1.13.19.4.37.79.55,1.17.5,1.06.97,2.06,1.37,3.07.2.5.56,1.17,1.38,1.17.23,0,.49-.05.79-.16l.16-.06-.07-.16c-.28-.59-.55-1.18-.82-1.77"/>
          <path class="cls-15" d="M43.75,6.32h-6.33c-.43,0-.78.35-.78.78v.81h2.84v4.65c0,.43.35.78.78.78h.88v-5.45h1.83c.43,0,.78-.35.78-.78v-.79Z"/>
          <path class="cls-12" d="M51.73,7.9h2.72v5.4h.91c.43,0,.78-.35.78-.78v-4.67h1.86c.43,0,.78-.35.78-.78v-.77h-6.27c-.43,0-.78.35-.78.78v.82Z"/>
          <path class="cls-30" d="M61.29,10.59h3.95c.43,0,.78-.35.78-.78v-.74h-3.95c-.43,0-.78.35-.78.78v.74Z"/>
          <path class="cls-9" d="M11.72,9.12h-1.53c-.43,0-.78.35-.78.78v.73h3.89c.43,0,.78-.35.78-.78v-.73h-2.36Z"/>
        </g>
      </g>
    </g>
  </g>
</svg>