<?xml version="1.0" encoding="UTF-8"?>
<svg id="Layer_2" data-name="Layer 2" xmlns="http://www.w3.org/2000/svg" viewBox="0 0 89.66 100">
  <defs>
    <style>
      .cls-1 {
        fill: #e3e3e3;
      }
    </style>
  </defs>
  <g id="Layer_1-2" data-name="Layer 1">
    <path class="cls-1" d="M42.98,95.79v-44.68L3.77,28.43v42.02c0,.79.2,1.53.59,2.22s.98,1.28,1.77,1.77l36.85,21.34ZM46.75,95.79l36.78-21.34c.79-.49,1.38-1.08,1.77-1.77s.59-1.43.59-2.22V28.43l-39.14,22.67v44.68ZM44.83,47.93l38.77-22.45L47.23,4.43c-.79-.49-1.58-.74-2.36-.74s-1.58.25-2.36.74L6.13,25.48l38.7,22.45ZM4.28,77.84c-1.38-.79-2.44-1.83-3.18-3.14s-1.11-2.72-1.11-4.25V29.47c0-1.47.37-2.87,1.11-4.2.74-1.34,1.8-2.4,3.18-3.18L40.62,1.18c1.33-.79,2.73-1.18,4.21-1.18s2.91.39,4.29,1.18l36.34,20.9c1.33.79,2.36,1.85,3.1,3.18.74,1.34,1.11,2.74,1.11,4.2v40.99c0,1.53-.37,2.95-1.11,4.28s-1.77,2.36-3.1,3.1l-36.34,20.97c-1.38.79-2.81,1.18-4.29,1.18s-2.88-.39-4.21-1.18L4.28,77.84Z"/>
  </g>
</svg>