<?xml version="1.0" encoding="UTF-8"?>
<svg id="Layer_2" data-name="Layer 2" xmlns="http://www.w3.org/2000/svg" viewBox="0 0 100.32 100">
  <defs>
    <style>
      .cls-1 {
        fill: #e3e3e3;
      }
    </style>
  </defs>
  <g id="Layer_1-2" data-name="Layer 1">
    <path class="cls-1" d="M53.82,53.28l25.57-17.46-25.57-17.54v35ZM86.98,87.18h.15c.34,1.03.14,1.94-.63,2.73s-1.63,1.25-2.62,1.4l-67.35,8.62c-2.36.29-4.44-.27-6.25-1.69-1.81-1.42-2.87-3.31-3.18-5.68L.1,37.88c-.34-2.3.23-4.41,1.72-6.35,1.49-1.94,3.42-3.02,5.8-3.23l5.53-.37v3.83l-4.86.29c-1.38.1-2.46.68-3.24,1.73s-1.08,2.25-.88,3.57l6.71,54.68c.2,1.38.79,2.46,1.77,3.24s2.16,1.08,3.54.88l70.82-8.99ZM33.04,75.75c-2.4,0-4.41-.81-6.04-2.44-1.62-1.62-2.44-3.64-2.44-6.04V8.47c0-2.4.81-4.41,2.44-6.04,1.62-1.62,3.64-2.44,6.04-2.44h58.8c2.4,0,4.41.81,6.04,2.44,1.62,1.62,2.44,3.64,2.44,6.04v58.8c0,2.4-.81,4.41-2.44,6.04-1.62,1.62-3.64,2.44-6.04,2.44h-58.8ZM33.04,72h58.8c1.38,0,2.51-.44,3.39-1.33s1.33-2.01,1.33-3.39V8.47c0-1.38-.44-2.51-1.33-3.39s-2.01-1.33-3.39-1.33h-58.8c-1.38,0-2.51.44-3.39,1.33s-1.33,2.01-1.33,3.39v58.8c0,1.38.44,2.51,1.33,3.39s2.01,1.33,3.39,1.33Z"/>
  </g>
</svg>