<?xml version="1.0" encoding="UTF-8"?>
<svg id="Layer_2" data-name="Layer 2" xmlns="http://www.w3.org/2000/svg" viewBox="0 0 113.01 100">
  <defs>
    <style>
      .cls-1 {
        fill: #d9d9d9;
      }
    </style>
  </defs>
  <g id="Layer_1-2" data-name="Layer 1">
    <path class="cls-1" d="M9.44,100c-2.66,0-4.9-.91-6.71-2.72-1.82-1.82-2.72-4.05-2.72-6.71V9.43c0-2.66.91-4.89,2.72-6.71C4.54.91,6.78,0,9.44,0h94.14c2.66,0,4.9.91,6.71,2.72,1.82,1.82,2.72,4.05,2.72,6.71v81.13c0,2.66-.91,4.89-2.72,6.71-1.82,1.82-4.05,2.72-6.71,2.72,0,0-94.14,0-94.14,0ZM9.47,95.8h94.07c1.32,0,2.53-.55,3.62-1.65s1.65-2.31,1.65-3.62V9.47c0-1.32-.55-2.53-1.65-3.62s-2.31-1.65-3.62-1.65H9.47c-1.32,0-2.53.55-3.62,1.65s-1.65,2.31-1.65,3.62v81.05c0,1.32.55,2.53,1.65,3.62s2.31,1.65,3.62,1.65ZM24.14,75.86h64.74v-4.2H24.14v4.2ZM24.14,52.06h20.68v-27.92h-20.68v27.92ZM60.79,52.06h28.09v-4.2h-28.09v4.2ZM60.79,28.34h28.09v-4.2h-28.09v4.2ZM4.2,95.8V4.2v91.6Z"/>
  </g>
</svg>