<?xml version="1.0" encoding="UTF-8"?>
<svg id="Layer_2" data-name="Layer 2" xmlns="http://www.w3.org/2000/svg" viewBox="0 0 101.73 99.92">
  <defs>
    <style>
      .cls-1 {
        fill: #e3e3e3;
      }
    </style>
  </defs>
  <g id="Layer_1-2" data-name="Layer 1">
    <path class="cls-1" d="M6.59,92.11c-.13.3-.31.56-.55.78s-.51.37-.81.45c-.13.26-.37.47-.71.65s-.8.24-1.36.19c-1.03-.13-1.82-.55-2.36-1.26s-.81-1.39-.81-2.03c1.42-1.72,3.21-2.73,5.36-3.04,2.15-.3,4.31-.22,6.46.26,1.42.43,2.77.79,4.04,1.07s2.42.01,3.46-.81c1.12-.47,1.66-1.13,1.61-1.97s-.41-1.84-1.1-3c-.73-1.85-1.29-3.93-1.68-6.23-.39-2.3-.06-4.36.97-6.17,1.42-1.72,3.21-2.73,5.36-3.04s4.31-.22,6.46.26c1.42.43,2.79.79,4.1,1.07s2.49.01,3.52-.81c1.16-.47,1.69-1.13,1.58-1.97s-.51-1.84-1.19-3c-.73-1.85-1.29-3.93-1.68-6.23s-.06-4.36.97-6.17c1.42-1.72,3.21-2.71,5.36-2.97s4.31-.15,6.46.32c1.42.43,2.79.76,4.1,1,1.31.24,2.49-.05,3.52-.87,1.16-.47,1.69-1.13,1.58-1.97s-.51-1.84-1.19-3c-.78-1.85-1.32-3.93-1.65-6.23s.03-4.36,1.07-6.17c1.42-1.72,3.21-2.71,5.36-2.97s4.31-.15,6.46.32c1.42.43,2.79.76,4.1,1s2.49-.05,3.52-.87c1.16-.47,1.69-1.13,1.58-1.97s-.51-1.84-1.19-3c-.78-1.85-1.32-3.91-1.65-6.17s.03-4.34,1.07-6.23c1.42-1.72,3.21-2.7,5.36-2.94s4.31-.14,6.46.29c1.29.56,2.42.83,3.39.81s1.82-.64,2.55-1.84c.3-.86.84-1.45,1.61-1.78s1.57-.33,2.39-.03c1.03.13,1.82.54,2.36,1.23s.83,1.36.87,2c-1.46,1.77-3.27,2.8-5.43,3.1s-4.28.22-6.39-.26c-1.46-.43-2.85-.76-4.17-1s-2.49.05-3.52.87c-1.16.47-1.69,1.13-1.58,1.97s.53,1.82,1.26,2.94c.73,1.89,1.26,3.99,1.58,6.3s-.01,4.36-1,6.17c-1.46,1.72-3.27,2.71-5.43,2.97s-4.31.15-6.46-.32c-1.42-.43-2.77-.76-4.04-1s-2.4.05-3.39.87c-1.16.47-1.72,1.13-1.68,1.97s.41,1.82,1.1,2.94c.73,1.89,1.31,3.99,1.74,6.3s.15,4.34-.84,6.1c-1.55,1.72-3.4,2.71-5.55,2.97s-4.31.15-6.46-.32c-1.38-.39-2.73-.65-4.07-.78s-2.45.15-3.36.84c-1.12.43-1.67,1.05-1.65,1.87s.38,1.79,1.07,2.91c.73,1.89,1.3,3.99,1.71,6.3s.1,4.36-.94,6.17c-1.46,1.72-3.29,2.72-5.49,3s-4.37.18-6.52-.29c-1.38-.39-2.71-.69-4-.9s-2.45.06-3.49.84c-1.08.43-1.58,1.05-1.52,1.87s.46,1.79,1.19,2.91c.73,1.89,1.26,3.99,1.58,6.3s-.01,4.36-1,6.17c-1.46,1.72-3.27,2.72-5.43,3s-4.31.18-6.46-.29c-1.38-.39-2.62-.64-3.71-.74s-2.03.33-2.81,1.32ZM19.83,37.92c-5.21,0-9.67-1.85-13.37-5.55C2.76,28.66.9,24.2.9,18.99s1.85-9.79,5.55-13.47C10.16,1.84,14.62,0,19.83,0s9.79,1.84,13.47,5.52c3.68,3.68,5.52,8.17,5.52,13.47s-1.84,9.67-5.52,13.37c-3.68,3.7-8.17,5.55-13.47,5.55ZM19.83,34.62c4.44,0,8.16-1.52,11.17-4.55s4.52-6.73,4.52-11.08-1.51-8.16-4.52-11.17-6.74-4.52-11.17-4.52-8.04,1.51-11.08,4.52-4.55,6.74-4.55,11.17,1.52,8.04,4.55,11.08c3.04,3.04,6.73,4.55,11.08,4.55ZM75.51,99.92c-2.11,0-3.88-.71-5.3-2.13s-2.13-3.19-2.13-5.3v-17.89c0-2.07.71-3.82,2.13-5.26s3.19-2.16,5.3-2.16h17.89c2.07,0,3.82.72,5.26,2.16s2.16,3.2,2.16,5.26v17.89c0,2.11-.72,3.88-2.16,5.3s-3.2,2.13-5.26,2.13h-17.89ZM75.51,96.63h17.89c1.16,0,2.14-.39,2.94-1.16s1.19-1.77,1.19-2.97v-17.89c0-1.16-.4-2.14-1.19-2.94s-1.78-1.19-2.94-1.19h-17.89c-1.21,0-2.2.4-2.97,1.19s-1.16,1.78-1.16,2.94v17.89c0,1.21.39,2.2,1.16,2.97s1.77,1.16,2.97,1.16Z"/>
  </g>
</svg>