<?xml version="1.0" encoding="UTF-8"?>
<svg id="Layer_2" data-name="Layer 2" xmlns="http://www.w3.org/2000/svg" viewBox="0 0 107.36 99.92">
  <defs>
    <style>
      .cls-1 {
        fill: #d9d9d9;
      }
    </style>
  </defs>
  <g id="Layer_1-2" data-name="Layer 1">
    <path class="cls-1" d="M8.96,99.92c-2.53,0-4.65-.86-6.38-2.59-1.72-1.72-2.59-3.85-2.59-6.38V26.42c0-2.53.86-4.66,2.59-6.38,1.72-1.72,3.86-2.59,6.41-2.59h27.31L53.68,0l17.37,17.45h27.31c2.55,0,4.69.86,6.41,2.59,1.72,1.72,2.59,3.85,2.59,6.38v64.54c0,2.53-.86,4.66-2.59,6.38-1.72,1.72-3.85,2.59-6.38,2.59,0,0-89.43,0-89.43,0ZM9,95.93h89.36c1.25,0,2.4-.52,3.44-1.56s1.56-2.19,1.56-3.44V26.45c0-1.25-.52-2.4-1.56-3.44s-2.19-1.56-3.44-1.56H9c-1.25,0-2.4.52-3.44,1.56s-1.56,2.19-1.56,3.44v64.48c0,1.25.52,2.4,1.56,3.44s2.19,1.56,3.44,1.56ZM28.95,79.34h50.78l-15.57-20.74-15.49,19.17-9.86-11.27-9.86,12.83ZM82.4,52.35c1.64,0,3.06-.59,4.25-1.78,1.19-1.19,1.78-2.6,1.78-4.24s-.59-3.06-1.78-4.25c-1.19-1.19-2.6-1.78-4.25-1.78s-3.06.59-4.24,1.78-1.78,2.6-1.78,4.25.59,3.06,1.78,4.24c1.19,1.19,2.6,1.78,4.24,1.78ZM42.18,17.45h23l-11.5-11.5-11.5,11.5ZM3.99,95.93V21.44v74.49Z"/>
  </g>
</svg>