<?xml version="1.0" encoding="UTF-8"?>
<svg id="Layer_2" data-name="Layer 2" xmlns="http://www.w3.org/2000/svg" viewBox="0 0 100 100">
  <defs>
    <style>
      .cls-1 {
        fill: #d9d9d9;
      }
    </style>
  </defs>
  <g id="Layer_1-2" data-name="Layer 1">
    <path class="cls-1" d="M32.26,85.81h3.81v5.6c0,1.39.45,2.54,1.34,3.44s2.04,1.34,3.44,1.34h50.56c1.34,0,2.48-.45,3.4-1.34s1.38-2.04,1.38-3.44v-50.56c0-1.34-.46-2.48-1.38-3.4s-2.05-1.38-3.4-1.38h-5.68v-3.81h5.68c2.36,0,4.38.84,6.07,2.52,1.68,1.68,2.52,3.7,2.52,6.07v50.56c0,2.41-.84,4.44-2.52,6.1-1.68,1.66-3.7,2.49-6.07,2.49h-50.56c-2.41,0-4.44-.83-6.1-2.49-1.66-1.66-2.49-3.69-2.49-6.1v-5.6ZM33.87,67.74c-9.43,0-17.44-3.28-24.01-9.84C3.29,51.33,0,43.34,0,33.92S3.28,16.49,9.84,9.9C16.41,3.3,24.4,0,33.82,0s17.43,3.29,24.03,9.86c6.6,6.57,9.9,14.58,9.9,24.01s-3.29,17.44-9.86,24.01c-6.57,6.57-14.58,9.86-24.01,9.86ZM33.84,63.93c8.31,0,15.4-2.93,21.28-8.78,5.88-5.86,8.81-12.94,8.81-21.25s-2.93-15.4-8.8-21.28c-5.87-5.88-12.96-8.81-21.28-8.81s-15.41,2.93-21.26,8.8c-5.85,5.87-8.78,12.96-8.78,21.28s2.93,15.41,8.78,21.26c5.86,5.85,12.94,8.78,21.25,8.78Z"/>
  </g>
</svg>