<?xml version="1.0" encoding="UTF-8"?>
<svg id="Layer_2" data-name="Layer 2" xmlns="http://www.w3.org/2000/svg" viewBox="0 0 74.76 100">
  <defs>
    <style>
      .cls-1 {
        fill: #e3e3e3;
      }
    </style>
  </defs>
  <g id="Layer_1-2" data-name="Layer 1">
    <path class="cls-1" d="M37.39,100c-2.19,0-4.05-.68-5.57-2.04s-2.25-3.1-2.2-5.23h-4.95c-1.01,0-1.94-.43-2.79-1.28-.86-.86-1.28-1.78-1.28-2.79v-17.9c-6.71-3.46-11.82-8.22-15.34-14.28C1.76,50.43,0,44.08,0,37.44c0-10.53,3.6-19.41,10.8-26.62C18.01,3.61,26.86,0,37.36,0s19.36,3.61,26.58,10.82,10.82,16.08,10.82,26.59c0,6.56-1.76,12.89-5.27,19-3.51,6.11-8.63,10.9-15.34,14.36v17.9c0,1-.43,1.93-1.28,2.79-.86.86-1.79,1.28-2.79,1.28h-4.95c.05,2.13-.67,3.87-2.18,5.23-1.51,1.36-3.36,2.04-5.55,2.04ZM24.68,88.66h25.4v-6.39h-25.4v6.39ZM24.68,77.88h25.4v-6.31h-25.4v6.31ZM23.4,67.49h11.9v-20.69l-13.02-13.02,3.04-3.04,12.06,12.06,12.06-12.06,3.04,3.04-13.02,13.03v20.68h11.9c5.74-2.79,10.4-6.83,13.97-12.11,3.57-5.28,5.36-11.28,5.36-17.98,0-9.3-3.22-17.19-9.67-23.64-6.45-6.46-14.32-9.69-23.62-9.69s-17.18,3.23-23.64,9.68c-6.46,6.45-9.69,14.33-9.69,23.64,0,6.71,1.79,12.7,5.36,17.99s8.23,9.33,13.97,12.12Z"/>
  </g>
</svg>