<?xml version="1.0" encoding="UTF-8"?>
<svg id="Layer_2" data-name="Layer 2" xmlns="http://www.w3.org/2000/svg" viewBox="0 0 100 100">
  <defs>
    <style>
      .cls-1 {
        fill: #e3e3e3;
      }
    </style>
  </defs>
  <g id="Layer_1-2" data-name="Layer 1">
    <path class="cls-1" d="M49.99,15.6c9.6,0,17.74,3.33,24.41,9.99,6.67,6.66,10,14.79,10,24.39s-3.33,17.74-9.99,24.41c-6.66,6.67-14.79,10-24.39,10s-17.74-3.33-24.41-9.99c-6.67-6.66-10-14.79-10-24.39s3.33-17.74,9.99-24.41c6.66-6.67,14.79-10,24.39-10ZM50.02,81.07c8.61,0,15.93-3.03,21.98-9.09,6.05-6.06,9.07-13.39,9.07-22s-3.03-15.93-9.09-21.98c-6.06-6.05-13.39-9.07-22-9.07s-15.93,3.03-21.98,9.09c-6.05,6.06-9.07,13.39-9.07,22s3.03,15.93,9.09,21.98c6.06,6.05,13.39,9.07,22,9.07ZM50,65.4c3.52,0,6.74-.92,9.66-2.76,2.91-1.84,5.11-4.34,6.6-7.49h-32.51c1.48,3.13,3.68,5.62,6.59,7.47s6.14,2.77,9.66,2.77ZM33.75,39.68c0,1.09.37,2,1.1,2.72.73.72,1.65,1.08,2.74,1.08s2-.37,2.72-1.1c.72-.73,1.08-1.65,1.08-2.74s-.37-2-1.1-2.72c-.73-.72-1.65-1.08-2.74-1.08s-2,.37-2.72,1.1c-.72.73-1.08,1.65-1.08,2.74ZM58.62,39.68c0,1.09.37,2,1.1,2.72.73.72,1.65,1.08,2.74,1.08s2-.37,2.72-1.1c.72-.73,1.08-1.65,1.08-2.74s-.37-2-1.1-2.72c-.73-.72-1.65-1.08-2.74-1.08s-2,.37-2.72,1.1c-.72.73-1.08,1.65-1.08,2.74ZM0,18.93V7.51c0-2.06.73-3.83,2.2-5.3C3.67.73,5.44,0,7.51,0h11.42v3.33H7.51c-1.22,0-2.22.39-3,1.17s-1.17,1.78-1.17,3v11.42H0ZM18.93,100H7.51c-2.06,0-3.83-.73-5.3-2.2-1.47-1.47-2.2-3.24-2.2-5.3v-11.42h3.33v11.42c0,1.22.39,2.22,1.17,3s1.78,1.17,3,1.17h11.42v3.33ZM81.07,98.63v-3.33h11.42c1.22,0,2.22-.39,3-1.17s1.17-1.78,1.17-3v-11.36h3.33v11.36c0,2.06-.73,3.83-2.2,5.3-1.47,1.47-3.24,2.2-5.3,2.2h-11.42ZM96.67,18.93V7.51c0-1.22-.39-2.22-1.17-3s-1.78-1.17-3-1.17h-11.42V0h11.42c2.06,0,3.83.73,5.3,2.2,1.47,1.47,2.2,3.24,2.2,5.3v11.42h-3.33Z"/>
  </g>
</svg>