<?xml version="1.0" encoding="UTF-8"?>
<svg id="Layer_2" data-name="Layer 2" xmlns="http://www.w3.org/2000/svg" viewBox="0 0 100 100">
  <defs>
    <style>
      .cls-1 {
        fill: #d9d9d9;
      }
    </style>
  </defs>
  <g id="Layer_1-2" data-name="Layer 1">
    <path class="cls-1" d="M43.49,100H9.47c-2.68,0-4.93-.91-6.75-2.72-1.82-1.82-2.72-4.05-2.72-6.71V9.43c0-2.66.91-4.89,2.72-6.71C4.54.91,6.79,0,9.47,0h34.02v100ZM39.29,95.8V4.2H9.47c-1.54,0-2.8.49-3.79,1.48s-1.48,2.25-1.48,3.79v81.05c0,1.54.49,2.8,1.48,3.79s2.25,1.48,3.79,1.48h29.82ZM56.51,43.49V0h34.02c2.68,0,4.93.91,6.75,2.72,1.82,1.82,2.72,4.07,2.72,6.75v34.02h-43.49ZM60.71,39.29h35.09V9.47c0-1.54-.49-2.8-1.48-3.79s-2.25-1.48-3.79-1.48h-29.82v35.09ZM56.51,100v-43.49h43.49v34.02c0,2.68-.91,4.93-2.72,6.75-1.82,1.82-4.07,2.72-6.75,2.72h-34.02ZM60.71,95.8h29.82c1.54,0,2.8-.49,3.79-1.48s1.48-2.25,1.48-3.79v-29.82h-35.09v35.09Z"/>
  </g>
</svg>