<?xml version="1.0" encoding="UTF-8"?>
<svg id="Layer_2" data-name="Layer 2" xmlns="http://www.w3.org/2000/svg" viewBox="0 0 130.17 100">
  <defs>
    <style>
      .cls-1 {
        fill: #e3e3e3;
      }
    </style>
  </defs>
  <g id="Layer_1-2" data-name="Layer 1">
    <path class="cls-1" d="M10.87,100c-3.06,0-5.64-1.05-7.73-3.14-2.09-2.09-3.14-4.67-3.14-7.74V10.87c0-3.07,1.05-5.65,3.14-7.74C5.23,1.05,7.81,0,10.87,0h108.43c3.06,0,5.64,1.05,7.73,3.14,2.09,2.09,3.14,4.67,3.14,7.74v78.25c0,3.07-1.05,5.65-3.14,7.74-2.09,2.09-4.67,3.14-7.73,3.14,0,0-108.43,0-108.43,0ZM4.84,90.89l93.74-24.76-15.91-61.29H10.91c-1.52,0-2.91.63-4.17,1.9s-1.9,2.66-1.9,4.17v79.98ZM7.59,95.16h111.67c1.52,0,2.91-.63,4.17-1.9,1.27-1.27,1.9-2.66,1.9-4.17V10.91c0-1.52-.63-2.91-1.9-4.17s-2.66-1.9-4.17-1.9h-31.5l16.7,64.71L7.59,95.16Z"/>
  </g>
</svg>