<?xml version="1.0" encoding="UTF-8"?>
<svg id="Layer_2" data-name="Layer 2" xmlns="http://www.w3.org/2000/svg" viewBox="0 0 100 100">
  <defs>
    <style>
      .cls-1 {
        fill: #e3e3e3;
      }
    </style>
  </defs>
  <g id="Layer_1-2" data-name="Layer 1">
    <path class="cls-1" d="M49.71,100c-6.8,0-13.23-1.31-19.29-3.92-6.05-2.62-11.33-6.18-15.83-10.71-4.5-4.52-8.06-9.82-10.67-15.9-2.62-6.08-3.92-12.57-3.92-19.47s1.34-13.53,4.02-19.61c2.68-6.07,6.35-11.37,11.01-15.89,4.66-4.52,10.12-8.06,16.39-10.64,6.27-2.58,12.94-3.86,20.01-3.86,6.45,0,12.59,1.08,18.41,3.24,5.82,2.16,10.96,5.16,15.42,8.98,4.46,3.83,8.03,8.39,10.71,13.7,2.69,5.31,4.03,11.1,4.03,17.38,0,8.23-2.31,14.91-6.92,20.05-4.62,5.14-11.28,7.71-19.98,7.71h-10.05c-3.01,0-5.56,1.03-7.65,3.1-2.09,2.07-3.13,4.61-3.13,7.62,0,2.81.73,5.04,2.19,6.69,1.46,1.66,2.19,3.53,2.19,5.62,0,1.85-.56,3.29-1.68,4.34-1.12,1.04-2.87,1.57-5.25,1.57ZM18.13,51.82c1.29,0,2.41-.46,3.35-1.39.94-.93,1.41-2.04,1.41-3.33s-.46-2.41-1.39-3.35c-.93-.94-2.04-1.41-3.33-1.41s-2.41.46-3.35,1.39c-.94.93-1.41,2.04-1.41,3.33s.46,2.41,1.39,3.35c.93.94,2.04,1.41,3.33,1.41ZM35.55,28.64c1.29,0,2.41-.46,3.35-1.39.94-.93,1.41-2.04,1.41-3.33s-.46-2.41-1.39-3.35c-.93-.94-2.04-1.41-3.33-1.41s-2.41.46-3.35,1.39c-.94.93-1.41,2.04-1.41,3.33s.46,2.41,1.39,3.35c.93.94,2.04,1.41,3.33,1.41ZM64.49,28.64c1.29,0,2.41-.46,3.35-1.39.94-.93,1.41-2.04,1.41-3.33s-.46-2.41-1.39-3.35c-.93-.94-2.04-1.41-3.33-1.41s-2.41.46-3.35,1.39c-.94.93-1.41,2.04-1.41,3.33s.46,2.41,1.39,3.35c.93.94,2.04,1.41,3.33,1.41ZM81.84,51.82c1.29,0,2.41-.46,3.35-1.39.94-.93,1.41-2.04,1.41-3.33s-.46-2.41-1.39-3.35c-.93-.94-2.04-1.41-3.33-1.41s-2.41.46-3.35,1.39c-.94.93-1.41,2.04-1.41,3.33s.46,2.41,1.39,3.35c.93.94,2.04,1.41,3.33,1.41ZM49.7,96.28c1.06,0,1.86-.22,2.4-.66.54-.44.81-1.09.81-1.97,0-1.36-.72-2.78-2.15-4.26s-2.15-3.95-2.15-7.4c0-4.23,1.39-7.73,4.17-10.5,2.78-2.77,6.21-4.15,10.29-4.15h10.03c7.58,0,13.34-2.22,17.27-6.67s5.9-10.24,5.9-17.38c0-11.76-4.53-21.29-13.59-28.61-9.06-7.31-19.47-10.97-31.24-10.97-13.41,0-24.72,4.48-33.92,13.45C8.32,26.14,3.72,37.08,3.72,50s4.51,23.75,13.52,32.76c9.01,9.01,19.84,13.52,32.47,13.52Z"/>
  </g>
</svg>