<?xml version="1.0" encoding="UTF-8"?>
<svg id="Layer_2" data-name="Layer 2" xmlns="http://www.w3.org/2000/svg" viewBox="0 0 133.69 100">
  <defs>
    <style>
      .cls-1 {
        fill: #d9d9d9;
      }
    </style>
  </defs>
  <g id="Layer_1-2" data-name="Layer 1">
    <path class="cls-1" d="M45.64,100c-1.37,0-2.55-.49-3.53-1.47-.98-.98-1.47-2.15-1.47-3.53v-12.73h20.86v-28.01c-5.09,1.44-10.41,1.57-15.96.39s-10.02-3.46-13.42-6.86v-11.85h-11.75L0,15.48c4.51-3.33,9.35-5.93,14.54-7.79,5.19-1.86,10.58-2.79,16.18-2.79s10.85.88,16.08,2.64c5.23,1.76,10.13,4.41,14.7,7.93V0h72.18v87.27c0,3.62-1.22,6.65-3.65,9.08-2.43,2.43-5.46,3.65-9.09,3.65H45.64ZM66.5,82.27h46.72v5c0,2.25.73,4.1,2.18,5.56,1.46,1.45,3.31,2.18,5.56,2.18s4.1-.73,5.56-2.18c1.45-1.46,2.18-3.31,2.18-5.56V5h-62.19v15.18l41.43,41.43v3.53h-3.62l-24.19-24.09-5.39,5.39c-1.37,1.37-2.71,2.5-4.02,3.38s-2.71,1.72-4.21,2.51v29.96ZM22.53,30.95h14.59v14.69c3,1.83,5.76,3.09,8.26,3.77,2.5.69,4.9,1.03,7.2,1.03,3.73,0,7.17-.69,10.3-2.06s5.94-3.3,8.42-5.78l5.29-5.19-14.63-14.63c-4.29-4.29-9.09-7.51-14.4-9.66-5.31-2.15-10.91-3.23-16.81-3.23-4.23,0-8.35.62-12.38,1.86s-7.54,2.78-10.54,4.6l14.69,14.59ZM108.23,87.27h-62.59v7.74h65.43c-1.04-1.04-1.78-2.22-2.2-3.52-.42-1.3-.64-2.71-.64-4.22ZM45.64,95v-7.74,7.74Z"/>
  </g>
</svg>