<?xml version="1.0" encoding="UTF-8"?>
<svg id="Layer_2" data-name="Layer 2" xmlns="http://www.w3.org/2000/svg" viewBox="0 0 113.77 100">
  <defs>
    <style>
      .cls-1 {
        fill: #e3e3e3;
      }
    </style>
  </defs>
  <g id="Layer_1-2" data-name="Layer 1">
    <path class="cls-1" d="M26.36,78.55c-3.54,2.92-7.19,4.21-10.95,3.88-3.76-.33-6.98-1.62-9.68-3.88s-4.48-5.2-5.36-8.83-.19-7.34,2.06-11.14l13.04-21.53c-2.64-1.87-4.74-4.27-6.31-7.18-1.57-2.92-2.35-6.07-2.35-9.47,0-5.73,1.97-10.56,5.9-14.5S21.47,0,27.19,0s10.55,1.97,14.48,5.9c3.93,3.93,5.9,8.76,5.9,14.48s-1.97,10.55-5.9,14.48-8.76,5.9-14.48,5.9c-1.41,0-2.8-.12-4.15-.37-1.36-.25-2.64-.65-3.85-1.2l-13.12,21.62c-1.71,2.75-2.22,5.45-1.54,8.09.68,2.64,2.04,4.78,4.09,6.43,1.99,1.7,4.35,2.66,7.08,2.89,2.73.22,5.38-.74,7.94-2.88l63.86-53.88c3.36-2.92,6.86-4.24,10.52-3.96s6.88,1.55,9.65,3.83c2.78,2.28,4.66,5.23,5.65,8.87s.34,7.37-1.94,11.22l-13.16,21.71c2.59,1.87,4.66,4.23,6.23,7.08,1.57,2.85,2.35,6,2.35,9.45,0,5.7-2.01,10.51-6.02,14.45-4.01,3.93-8.84,5.9-14.48,5.9s-10.43-1.99-14.36-5.97c-3.93-3.98-5.9-8.8-5.9-14.46s1.98-10.37,5.94-14.35c3.96-3.99,8.72-5.98,14.28-5.98,1.43,0,2.85.14,4.25.43,1.4.29,2.74.7,4,1.22l13.04-21.7c1.65-2.75,2.16-5.44,1.53-8.08-.63-2.63-1.93-4.79-3.92-6.48-1.98-1.68-4.36-2.65-7.12-2.9-2.76-.25-5.39.7-7.91,2.85l-63.78,53.96ZM27.19,36.55c4.51,0,8.33-1.57,11.47-4.7s4.7-6.96,4.7-11.47-1.57-8.33-4.7-11.47c-3.14-3.14-6.96-4.7-11.47-4.7s-8.33,1.57-11.47,4.7-4.7,6.96-4.7,11.47,1.57,8.33,4.7,11.47c3.14,3.14,6.96,4.7,11.47,4.7ZM86.24,95.79c4.5,0,8.35-1.57,11.55-4.7,3.2-3.14,4.81-6.96,4.81-11.47s-1.6-8.33-4.81-11.47c-3.2-3.14-7.05-4.7-11.55-4.7s-8.29,1.57-11.37,4.7-4.62,6.96-4.62,11.47,1.54,8.33,4.62,11.47,6.87,4.7,11.37,4.7Z"/>
  </g>
</svg>