<?xml version="1.0" encoding="UTF-8"?>
<svg id="Layer_2" data-name="Layer 2" xmlns="http://www.w3.org/2000/svg" viewBox="0 0 130.17 100">
  <defs>
    <style>
      .cls-1 {
        fill: #e3e3e3;
      }
    </style>
  </defs>
  <g id="Layer_1-2" data-name="Layer 1">
    <path class="cls-1" d="M85.77,80.74h5.03v-11.29h5.03c2.22,0,4.14-.8,5.75-2.41,1.61-1.61,2.41-3.52,2.41-5.75v-22.58c0-2.22-.8-4.14-2.41-5.75-1.61-1.61-3.52-2.41-5.75-2.41h-15.01c-2.17,0-4.09.8-5.74,2.41-1.66,1.61-2.49,3.52-2.49,5.75v22.58c0,2.22.83,4.14,2.48,5.75,1.65,1.61,3.57,2.41,5.73,2.41h4.97v11.29ZM26.19,69.45h5.03v-15.09h21.35v15.09h5.03V30.55h-5.03v18.79h-21.35v-18.79h-5.03v38.9ZM80.65,64.42c-.76,0-1.45-.32-2.09-.95s-.95-1.33-.95-2.09v-22.77c0-.76.32-1.45.95-2.09s1.33-.95,2.09-.95h15.28c.76,0,1.45.32,2.09.95s.95,1.33.95,2.09v22.77c0,.76-.32,1.45-.95,2.09s-1.33.95-2.09.95h-15.28ZM10.87,100c-3.06,0-5.64-1.05-7.73-3.14-2.09-2.09-3.14-4.67-3.14-7.74V10.87c0-3.07,1.05-5.65,3.14-7.74C5.23,1.05,7.81,0,10.87,0h108.43c3.06,0,5.64,1.05,7.73,3.14,2.09,2.09,3.14,4.67,3.14,7.74v78.25c0,3.07-1.05,5.65-3.14,7.74-2.09,2.09-4.67,3.14-7.73,3.14,0,0-108.43,0-108.43,0ZM10.91,95.16h108.35c1.52,0,2.91-.63,4.17-1.9,1.27-1.27,1.9-2.66,1.9-4.17V10.91c0-1.52-.63-2.91-1.9-4.17s-2.66-1.9-4.17-1.9H10.91c-1.52,0-2.91.63-4.17,1.9s-1.9,2.66-1.9,4.17v78.18c0,1.52.63,2.91,1.9,4.17,1.27,1.27,2.66,1.9,4.17,1.9Z"/>
  </g>
</svg>