<?xml version="1.0" encoding="UTF-8"?>
<svg id="Layer_2" data-name="Layer 2" xmlns="http://www.w3.org/2000/svg" viewBox="0 0 143.54 100">
  <defs>
    <style>
      .cls-1 {
        fill: #d9d9d9;
      }
    </style>
  </defs>
  <g id="Layer_1-2" data-name="Layer 1">
    <path class="cls-1" d="M0,100l20.37-38.16c.93-1.75,2.25-3.15,3.95-4.19,1.7-1.05,3.61-1.57,5.73-1.57s4.22.58,6.04,1.73c1.82,1.16,3.16,2.77,4.02,4.83l3.71,8.37c1.13,2.47,3.27,3.61,6.43,3.41,3.16-.19,5.17-1.52,6.02-3.98l15.58-48.83c1.53-4.58,4.28-8.2,8.26-10.86,3.98-2.66,8.35-3.99,13.12-3.99s9.04,1.3,13.02,3.89c3.98,2.59,6.71,6.11,8.2,10.56l29.09,78.8h-4.94l-28.82-77.25c-1.13-3.51-3.27-6.24-6.42-8.21s-6.55-2.95-10.2-2.95-7.16,1.01-10.27,3.04-5.2,4.81-6.28,8.33l-15.68,48.89c-.89,2.34-2.32,4.21-4.29,5.61-1.97,1.39-4.21,2.09-6.72,2.09-2.26,0-4.35-.59-6.27-1.76-1.92-1.17-3.38-2.8-4.4-4.9l-4.09-9.6c-1.01-2.09-2.76-3.17-5.23-3.23s-4.28.95-5.42,3.04L5.23,100H0ZM31.45,34.32c-4.73,0-8.81-1.67-12.24-5.01-3.43-3.34-5.14-7.39-5.14-12.15s1.71-8.84,5.14-12.17C22.64,1.66,26.72,0,31.45,0s8.75,1.66,12.02,4.98c3.27,3.32,4.91,7.38,4.91,12.19s-1.64,8.85-4.91,12.17c-3.27,3.32-7.28,4.98-12.02,4.98ZM31.42,29.47c3.46,0,6.34-1.22,8.65-3.66,2.31-2.44,3.46-5.37,3.46-8.79s-1.15-6.31-3.45-8.65c-2.3-2.34-5.19-3.52-8.65-3.52s-6.42,1.18-8.86,3.53c-2.44,2.35-3.66,5.27-3.66,8.74s1.22,6.25,3.66,8.69,5.39,3.66,8.85,3.66Z"/>
  </g>
</svg>