<?xml version="1.0" encoding="UTF-8"?>
<svg id="Layer_2" data-name="Layer 2" xmlns="http://www.w3.org/2000/svg" viewBox="0 0 106.6 100">
  <defs>
    <style>
      .cls-1 {
        fill: #d9d9d9;
      }
    </style>
  </defs>
  <g id="Layer_1-2" data-name="Layer 1">
    <path class="cls-1" d="M6.6,100v-12.13L93.3,1.09c.45-.45.92-.74,1.42-.88s1-.21,1.53-.21c.47,0,.97.07,1.49.21.52.14.97.43,1.36.87l6.44,6.44c.44.44.73.92.87,1.44.14.52.21.99.21,1.41,0,.52-.07,1.03-.21,1.53s-.43.97-.88,1.42L18.73,100H6.6ZM10.81,95.79h6.19L87.79,24.92l-2.97-3.14-3.14-2.97L10.81,89.6v6.19ZM102.39,10.31l-6.11-6.11,6.11,6.11ZM84.82,21.78l-3.14-2.97,6.11,6.11-2.97-3.14ZM66.25,100c6.97,0,13.46-1.62,19.46-4.87,6-3.25,9-7.84,9-13.78,0-3.66-1.38-7.03-4.13-10.09-2.75-3.06-7.04-5.56-12.87-7.48l-3.3,3.3c5.28,1.65,9.28,3.7,12,6.15,2.72,2.45,4.08,5.16,4.08,8.13,0,4.19-2.38,7.65-7.14,10.36-4.76,2.72-10.47,4.07-17.11,4.07-.61,0-1.11.21-1.53.63-.41.42-.62.89-.62,1.44,0,.61.21,1.11.62,1.53s.92.62,1.53.62ZM10.89,60.89l2.97-3.22c-3.36-1.43-5.8-2.94-7.34-4.54s-2.31-3.22-2.31-4.87c0-2.26,1.32-4.43,3.96-6.52s7.43-4.66,14.38-7.71c8.17-3.5,13.75-6.64,16.76-9.41,3.01-2.78,4.51-5.9,4.51-9.36,0-4.29-2.05-7.91-6.15-10.85C33.57,1.47,28.33,0,21.95,0c-3.85,0-7.58.7-11.18,2.1-3.6,1.4-6.15,3.15-7.63,5.24-.44.55-.63,1.09-.58,1.61s.33.98.83,1.36c.44.28.92.41,1.44.39.52-.02,1-.26,1.45-.72,1.82-1.87,4.07-3.3,6.78-4.29,2.7-.99,5.67-1.49,8.88-1.49,5.46,0,9.76,1.09,12.93,3.26,3.16,2.18,4.74,4.77,4.74,7.78,0,2.64-1.29,4.97-3.88,7.01-2.59,2.04-7.54,4.68-14.85,7.93-8.03,3.52-13.52,6.58-16.46,9.17-2.94,2.59-4.41,5.56-4.41,8.9,0,2.26.88,4.5,2.64,6.72,1.76,2.23,4.51,4.19,8.25,5.9Z"/>
  </g>
</svg>