<?xml version="1.0" encoding="UTF-8"?>
<svg id="Layer_2" data-name="Layer 2" xmlns="http://www.w3.org/2000/svg" viewBox="0 0 100 100">
  <defs>
    <style>
      .cls-1 {
        fill: #d9d9d9;
      }
    </style>
  </defs>
  <g id="Layer_1-2" data-name="Layer 1">
    <path class="cls-1" d="M34.86,48.65l13.87-13.79-13.49-13.42-7.2,7.2-2.7-2.7,7.2-7.2-13.49-13.57-13.79,13.79,29.61,29.69ZM80.88,94.6l13.79-13.79-13.42-13.42-7.2,7.2-2.77-2.77,7.2-7.2-13.27-13.27-13.79,13.79,29.46,29.46ZM81.86,6.97l11.17,11.17-11.17-11.17ZM22.71,94H6v-16.64l26.16-26.16L0,18.97,19.12,0l32.31,32.23,27.81-27.89c.4-.4.84-.7,1.31-.9s.99-.3,1.54-.3c.5,0,.99.1,1.46.3s.94.5,1.39.9l10.72,11.09c.4.45.67.91.82,1.39s.22.96.22,1.46c0,.55-.07,1.05-.22,1.5s-.42.87-.82,1.27l-27.59,27.66,31.93,32.16-18.97,19.12-32.23-32.08-26.09,26.09ZM9.82,90.18h11.24l57.8-57.87-11.17-11.17L9.82,79.01v11.17ZM73.31,26.61l-5.62-5.47,11.17,11.17-5.55-5.7Z"/>
  </g>
</svg>