<?xml version="1.0" encoding="UTF-8"?>
<svg id="Layer_2" data-name="Layer 2" xmlns="http://www.w3.org/2000/svg" viewBox="0 0 100 100">
  <defs>
    <style>
      .cls-1 {
        fill: #e3e3e3;
      }
    </style>
  </defs>
  <g id="Layer_1-2" data-name="Layer 1">
    <path class="cls-1" d="M39.03,43.35c1.18,0,2.18-.4,3.01-1.2.82-.8,1.24-1.79,1.24-2.97s-.4-2.18-1.2-3.01c-.8-.82-1.79-1.24-2.97-1.24s-2.18.4-3.01,1.2c-.82.8-1.24,1.79-1.24,2.97s.4,2.18,1.2,3.01c.8.82,1.79,1.24,2.97,1.24ZM39.03,65.14c1.18,0,2.18-.4,3.01-1.2.82-.8,1.24-1.79,1.24-2.97s-.4-2.18-1.2-3.01c-.8-.82-1.79-1.24-2.97-1.24s-2.18.4-3.01,1.2c-.82.8-1.24,1.79-1.24,2.97s.4,2.18,1.2,3.01c.8.82,1.79,1.24,2.97,1.24ZM20.87,42.74c.98,0,1.83-.37,2.57-1.1.73-.73,1.1-1.59,1.1-2.57s-.37-1.83-1.1-2.57c-.73-.73-1.59-1.1-2.57-1.1s-1.83.37-2.57,1.1c-.73.73-1.1,1.59-1.1,2.57s.37,1.83,1.1,2.57c.73.73,1.59,1.1,2.57,1.1ZM39.07,82.8c.98,0,1.83-.37,2.57-1.1.73-.73,1.1-1.59,1.1-2.57s-.37-1.83-1.1-2.57c-.73-.73-1.59-1.1-2.57-1.1s-1.83.37-2.57,1.1c-.73.73-1.1,1.59-1.1,2.57s.37,1.83,1.1,2.57c.73.73,1.59,1.1,2.57,1.1ZM20.87,64.6c.98,0,1.83-.37,2.57-1.1.73-.73,1.1-1.59,1.1-2.57s-.37-1.83-1.1-2.57c-.73-.73-1.59-1.1-2.57-1.1s-1.83.37-2.57,1.1c-.73.73-1.1,1.59-1.1,2.57s.37,1.83,1.1,2.57c.73.73,1.59,1.1,2.57,1.1ZM39.07,24.54c.98,0,1.83-.37,2.57-1.1.73-.73,1.1-1.59,1.1-2.57s-.37-1.83-1.1-2.57c-.73-.73-1.59-1.1-2.57-1.1s-1.83.37-2.57,1.1c-.73.73-1.1,1.59-1.1,2.57s.37,1.83,1.1,2.57c.73.73,1.59,1.1,2.57,1.1ZM60.82,43.35c1.18,0,2.18-.4,3.01-1.2.82-.8,1.24-1.79,1.24-2.97s-.4-2.18-1.2-3.01c-.8-.82-1.79-1.24-2.97-1.24s-2.18.4-3.01,1.2c-.82.8-1.24,1.79-1.24,2.97s.4,2.18,1.2,3.01c.8.82,1.79,1.24,2.97,1.24ZM60.93,24.54c.98,0,1.83-.35,2.57-1.05.73-.7,1.1-1.56,1.1-2.58s-.37-1.85-1.1-2.59c-.73-.74-1.59-1.12-2.57-1.12s-1.83.37-2.57,1.12c-.73.75-1.1,1.62-1.1,2.62s.37,1.85,1.1,2.55c.73.7,1.59,1.05,2.57,1.05ZM79.13,64.6c.98,0,1.83-.37,2.57-1.1.73-.73,1.1-1.59,1.1-2.57s-.37-1.83-1.1-2.57c-.73-.73-1.59-1.1-2.57-1.1s-1.83.37-2.57,1.1c-.73.73-1.1,1.59-1.1,2.57s.37,1.83,1.1,2.57c.73.73,1.59,1.1,2.57,1.1ZM79.13,42.74c.98,0,1.83-.37,2.57-1.1.73-.73,1.1-1.59,1.1-2.57s-.37-1.83-1.1-2.57c-.73-.73-1.59-1.1-2.57-1.1s-1.83.37-2.57,1.1c-.73.73-1.1,1.59-1.1,2.57s.37,1.83,1.1,2.57c.73.73,1.59,1.1,2.57,1.1ZM50.08,100c-6.87,0-13.35-1.3-19.44-3.9-6.09-2.6-11.42-6.19-16-10.76-4.58-4.57-8.16-9.89-10.75-15.95-2.59-6.06-3.89-12.54-3.89-19.43s1.3-13.37,3.9-19.41c2.6-6.04,6.19-11.34,10.76-15.92,4.57-4.58,9.89-8.16,15.95-10.75,6.06-2.59,12.54-3.89,19.43-3.89s13.37,1.3,19.41,3.9c6.04,2.6,11.34,6.19,15.92,10.76,4.58,4.57,8.16,9.87,10.75,15.91,2.59,6.04,3.89,12.49,3.89,19.35s-1.3,13.35-3.9,19.44c-2.6,6.09-6.19,11.42-10.76,16-4.57,4.58-9.87,8.16-15.91,10.75-6.04,2.59-12.49,3.89-19.35,3.89ZM50,97.32c13.1,0,24.27-4.61,33.49-13.83,9.23-9.22,13.84-20.38,13.84-33.49s-4.61-24.27-13.83-33.49C74.27,7.29,63.11,2.68,50,2.68s-24.27,4.61-33.49,13.83C7.29,25.73,2.68,36.89,2.68,50s4.61,24.27,13.83,33.49c9.22,9.23,20.38,13.84,33.49,13.84ZM60.93,82.8c.98,0,1.83-.37,2.57-1.1.73-.73,1.1-1.59,1.1-2.57s-.37-1.83-1.1-2.57c-.73-.73-1.59-1.1-2.57-1.1s-1.83.37-2.57,1.1c-.73.73-1.1,1.59-1.1,2.57s.37,1.83,1.1,2.57c.73.73,1.59,1.1,2.57,1.1ZM60.82,65.14c1.18,0,2.18-.4,3.01-1.2.82-.8,1.24-1.79,1.24-2.97s-.4-2.18-1.2-3.01c-.8-.82-1.79-1.24-2.97-1.24s-2.18.4-3.01,1.2c-.82.8-1.24,1.79-1.24,2.97s.4,2.18,1.2,3.01c.8.82,1.79,1.24,2.97,1.24Z"/>
  </g>
</svg>