<?xml version="1.0" encoding="UTF-8"?>
<svg id="Layer_1" data-name="Layer 1" xmlns="http://www.w3.org/2000/svg" viewBox="0 0 1210.13 254.22">
  <defs>
    <style>
      .cls-1 {
        fill: #fff;
      }
    </style>
  </defs>
  <path class="cls-1" d="M440.15,120.8c-15.7,0-22.58,12.15-26.82,22.74-7.75,19.36-16.7,38.44-26.17,58.63-3.35,7.14-6.77,14.44-10.26,21.99-3.54-7.63-7.05-15.06-10.49-22.34-9.9-20.96-19.25-40.76-27.38-61-5.32-13.24-12.72-19.4-23.27-19.4-4.6,0-9.89,1.17-16.19,3.57l-3,1.14,1.34,2.91c4.59,9.96,9.08,19.94,13.57,29.91,13.3,29.57,27.06,60.15,43.06,88.82,3.12,5.59,16.95,6.19,22.75,6.19,6.79,0,18.6-.76,21.45-5.82,16.45-29.26,30.67-60.36,44.42-90.43,4.56-9.97,9.12-19.94,13.76-29.87l1.41-3.01-3.13-1.1c-5.66-1.98-10.59-2.94-15.06-2.94Z"/>
  <path class="cls-1" d="M786.26,253.97c15.7,0,22.58-12.15,26.82-22.74,7.75-19.36,16.7-38.44,26.17-58.63,3.35-7.14,6.77-14.44,10.26-21.99,3.54,7.63,7.05,15.06,10.49,22.34,9.9,20.96,19.25,40.76,27.38,61,5.32,13.24,12.72,19.4,23.27,19.4,4.6,0,9.89-1.17,16.19-3.57l3-1.14-1.34-2.91c-4.59-9.96-9.08-19.94-13.57-29.91-13.3-29.57-27.06-60.15-43.06-88.82-3.12-5.59-16.95-6.19-22.75-6.19-6.79,0-18.6.76-21.45,5.82-16.45,29.26-30.67,60.36-44.42,90.43-4.56,9.97-9.12,19.94-13.76,29.87l-1.41,3.01,3.13,1.1c5.66,1.98,10.59,2.94,15.06,2.94Z"/>
  <path class="cls-1" d="M30.01,223.2v-87.57c0-8.21-6.65-14.86-14.86-14.86H0v132.94h127.19v-15.65c0-8.21-6.65-14.86-14.86-14.86H30.01Z"/>
  <path class="cls-1" d="M771.92,120.77h-120.19c-8.21,0-14.86,6.65-14.86,14.86v15.45h53.85v88.28c0,8.21,6.65,14.86,14.86,14.86h16.72v-103.51h34.76c8.21,0,14.86-6.65,14.86-14.86v-15.08Z"/>
  <path class="cls-1" d="M923.49,151.37h51.71v102.63h17.3c8.21,0,14.86-6.65,14.86-14.86v-88.72h35.31c8.21,0,14.86-6.65,14.86-14.86v-14.57h-119.18c-8.21,0-14.86,6.65-14.86,14.86v15.52Z"/>
  <g>
    <path class="cls-1" d="M1075.14,239.97v14.25h120.12c8.21,0,14.86-6.65,14.86-14.86v-14.25h-120.12c-8.21,0-14.86,6.65-14.86,14.86Z"/>
    <path class="cls-1" d="M1210.13,120.77h-120.01c-8.21,0-14.86,6.65-14.86,14.86v14.11h120.01c8.21,0,14.86-6.65,14.86-14.86v-14.11Z"/>
    <path class="cls-1" d="M1098.71,202.23h74.94c8.21,0,14.86-6.65,14.86-14.86v-13.98h-74.94c-8.21,0-14.86,6.65-14.86,14.86v13.98Z"/>
  </g>
  <g>
    <path class="cls-1" d="M280.39,120.79h-120.72c-8.21,0-14.86,6.65-14.86,14.86v14.24h120.72c8.21,0,14.86-6.65,14.86-14.86v-14.24Z"/>
    <path class="cls-1" d="M144.81,239.85v14.15h120.72c8.21,0,14.86-6.65,14.86-14.86v-14.15h-120.72c-8.21,0-14.86,6.65-14.86,14.86Z"/>
    <path class="cls-1" d="M212.6,172.76h-29.12c-8.21,0-14.86,6.65-14.86,14.86v13.85h73.88c8.21,0,14.86-6.65,14.86-14.86v-13.85h-44.76Z"/>
  </g>
  <g>
    <path class="cls-1" d="M547.12,61.27c-40.71-.67-69.39-24.54-88.23-61.27,6.04,33.24,19.48,59.77,48.22,77.08,23.68,14.28,28.8,28.34,22.06,55.51-15.75,45.07.49,85.23,17.95,120.86h0c17.46-35.63,33.7-75.79,17.95-120.86-6.74-27.17-1.62-41.24,22.06-55.51C615.86,59.77,629.31,33.24,635.35,0c-18.84,36.73-47.52,60.6-88.23,61.27h0Z"/>
    <path class="cls-1" d="M526.05,25.05c.15-1.11.22-3.75.88-6.23,2.59-9.66,10.55-16.3,19.68-16.67,8.26-.33,16.07,5.51,19.64,14.69,6.65,17.1-4.84,35.36-21.44,34.05-10.88-.86-18.9-11.26-18.77-25.85Z"/>
  </g>
</svg>